<mxfile host="app.diagrams.net" modified="2021-03-31T13:33:34.758Z" agent="5.0 (Windows)" etag="-MXn0FQ2vVH9Pp7Yvh_f" version="14.5.3" type="gitlab" pages="4">
  <diagram id="YBZuPH5mCjDXpLuSwGHa" name="Scenario_Design">
    <mxGraphModel dx="2899" dy="978" grid="1" gridSize="10" guides="1" tooltips="1" connect="1" arrows="1" fold="1" page="1" pageScale="1" pageWidth="1169" pageHeight="827" math="0" shadow="0">
      <root>
        <mxCell id="8-NGuv1zwmkcrwSwAf9n-0" />
        <mxCell id="8-NGuv1zwmkcrwSwAf9n-1" parent="8-NGuv1zwmkcrwSwAf9n-0" />
        <mxCell id="XWE8DCE6unmG_nTmBcOP-0" value="Scenario" style="swimlane;fontStyle=0;align=center;verticalAlign=top;childLayout=stackLayout;horizontal=1;startSize=26;horizontalStack=0;resizeParent=1;resizeLast=0;collapsible=1;marginBottom=0;rounded=0;shadow=0;strokeWidth=1;" parent="8-NGuv1zwmkcrwSwAf9n-1" vertex="1">
          <mxGeometry x="280" y="245" width="160" height="140" as="geometry">
            <mxRectangle x="550" y="140" width="160" height="26" as="alternateBounds" />
          </mxGeometry>
        </mxCell>
        <mxCell id="XWE8DCE6unmG_nTmBcOP-1" value="+title" style="text;align=left;verticalAlign=top;spacingLeft=4;spacingRight=4;overflow=hidden;rotatable=0;points=[[0,0.5],[1,0.5]];portConstraint=eastwest;" parent="XWE8DCE6unmG_nTmBcOP-0" vertex="1">
          <mxGeometry y="26" width="160" height="26" as="geometry" />
        </mxCell>
        <mxCell id="XWE8DCE6unmG_nTmBcOP-2" value="+description" style="text;align=left;verticalAlign=top;spacingLeft=4;spacingRight=4;overflow=hidden;rotatable=0;points=[[0,0.5],[1,0.5]];portConstraint=eastwest;rounded=0;shadow=0;html=0;" parent="XWE8DCE6unmG_nTmBcOP-0" vertex="1">
          <mxGeometry y="52" width="160" height="26" as="geometry" />
        </mxCell>
        <mxCell id="XWE8DCE6unmG_nTmBcOP-3" value="+image" style="text;align=left;verticalAlign=top;spacingLeft=4;spacingRight=4;overflow=hidden;rotatable=0;points=[[0,0.5],[1,0.5]];portConstraint=eastwest;rounded=0;shadow=0;html=0;" parent="XWE8DCE6unmG_nTmBcOP-0" vertex="1">
          <mxGeometry y="78" width="160" height="26" as="geometry" />
        </mxCell>
        <mxCell id="XWE8DCE6unmG_nTmBcOP-4" value="+last_edited" style="text;align=left;verticalAlign=top;spacingLeft=4;spacingRight=4;overflow=hidden;rotatable=0;points=[[0,0.5],[1,0.5]];portConstraint=eastwest;rounded=0;shadow=0;html=0;" parent="XWE8DCE6unmG_nTmBcOP-0" vertex="1">
          <mxGeometry y="104" width="160" height="26" as="geometry" />
        </mxCell>
        <mxCell id="XWE8DCE6unmG_nTmBcOP-5" value="" style="line;html=1;strokeWidth=1;align=left;verticalAlign=middle;spacingTop=-1;spacingLeft=3;spacingRight=3;rotatable=0;labelPosition=right;points=[];portConstraint=eastwest;" parent="XWE8DCE6unmG_nTmBcOP-0" vertex="1">
          <mxGeometry y="130" width="160" height="8" as="geometry" />
        </mxCell>
        <mxCell id="XWE8DCE6unmG_nTmBcOP-6" value="1" style="endArrow=open;html=1;endSize=12;startArrow=diamondThin;startSize=14;startFill=0;align=left;verticalAlign=bottom;entryX=0;entryY=0.5;entryDx=0;entryDy=0;rounded=0;exitX=0;exitY=0.5;exitDx=0;exitDy=0;edgeStyle=orthogonalEdgeStyle;" parent="XWE8DCE6unmG_nTmBcOP-0" source="XWE8DCE6unmG_nTmBcOP-3" target="XWE8DCE6unmG_nTmBcOP-4" edge="1">
          <mxGeometry x="-0.759" relative="1" as="geometry">
            <mxPoint x="-270" y="39" as="sourcePoint" />
            <mxPoint y="65" as="targetPoint" />
            <mxPoint as="offset" />
            <Array as="points">
              <mxPoint x="-70" y="91" />
              <mxPoint x="-70" y="117" />
            </Array>
          </mxGeometry>
        </mxCell>
        <mxCell id="XWE8DCE6unmG_nTmBcOP-7" value="0..*" style="edgeLabel;html=1;align=center;verticalAlign=middle;resizable=0;points=[];" parent="XWE8DCE6unmG_nTmBcOP-6" vertex="1" connectable="0">
          <mxGeometry x="0.4747" y="1" relative="1" as="geometry">
            <mxPoint x="-22.14" y="7.959999999999999" as="offset" />
          </mxGeometry>
        </mxCell>
        <mxCell id="XWE8DCE6unmG_nTmBcOP-8" value="previous_version" style="edgeLabel;html=1;align=center;verticalAlign=middle;resizable=0;points=[];" parent="XWE8DCE6unmG_nTmBcOP-6" vertex="1" connectable="0">
          <mxGeometry x="0.1434" relative="1" as="geometry">
            <mxPoint x="9.94" y="-14.86" as="offset" />
          </mxGeometry>
        </mxCell>
        <mxCell id="XWE8DCE6unmG_nTmBcOP-9" value="Inject" style="swimlane;fontStyle=2;align=center;verticalAlign=top;childLayout=stackLayout;horizontal=1;startSize=26;horizontalStack=0;resizeParent=1;resizeLast=0;collapsible=1;marginBottom=0;rounded=0;shadow=0;strokeWidth=1;" parent="8-NGuv1zwmkcrwSwAf9n-1" vertex="1">
          <mxGeometry x="280" y="805.01" width="160" height="114.99" as="geometry">
            <mxRectangle x="550" y="140" width="160" height="26" as="alternateBounds" />
          </mxGeometry>
        </mxCell>
        <mxCell id="XWE8DCE6unmG_nTmBcOP-10" value="+description" style="text;align=left;verticalAlign=top;spacingLeft=4;spacingRight=4;overflow=hidden;rotatable=0;points=[[0,0.5],[1,0.5]];portConstraint=eastwest;rounded=0;shadow=0;html=0;" parent="XWE8DCE6unmG_nTmBcOP-9" vertex="1">
          <mxGeometry y="26" width="160" height="26" as="geometry" />
        </mxCell>
        <mxCell id="XWE8DCE6unmG_nTmBcOP-11" value="+image" style="text;align=left;verticalAlign=top;spacingLeft=4;spacingRight=4;overflow=hidden;rotatable=0;points=[[0,0.5],[1,0.5]];portConstraint=eastwest;rounded=0;shadow=0;html=0;" parent="XWE8DCE6unmG_nTmBcOP-9" vertex="1">
          <mxGeometry y="52" width="160" height="26" as="geometry" />
        </mxCell>
        <mxCell id="XWE8DCE6unmG_nTmBcOP-12" value="" style="line;html=1;strokeWidth=1;align=left;verticalAlign=middle;spacingTop=-1;spacingLeft=3;spacingRight=3;rotatable=0;labelPosition=right;points=[];portConstraint=eastwest;" parent="XWE8DCE6unmG_nTmBcOP-9" vertex="1">
          <mxGeometry y="78" width="160" height="8" as="geometry" />
        </mxCell>
        <mxCell id="XWE8DCE6unmG_nTmBcOP-13" value="+display_inject()" style="text;align=left;verticalAlign=top;spacingLeft=4;spacingRight=4;overflow=hidden;rotatable=0;points=[[0,0.5],[1,0.5]];portConstraint=eastwest;rounded=0;shadow=0;html=0;" parent="XWE8DCE6unmG_nTmBcOP-9" vertex="1">
          <mxGeometry y="86" width="160" height="26" as="geometry" />
        </mxCell>
        <mxCell id="XWE8DCE6unmG_nTmBcOP-14" value="1" style="endArrow=open;html=1;endSize=12;startArrow=diamondThin;startSize=14;startFill=1;edgeStyle=orthogonalEdgeStyle;align=left;verticalAlign=bottom;exitX=0.5;exitY=1;exitDx=0;exitDy=0;rounded=0;entryX=0.5;entryY=0;entryDx=0;entryDy=0;" parent="8-NGuv1zwmkcrwSwAf9n-1" source="XWE8DCE6unmG_nTmBcOP-0" target="XWE8DCE6unmG_nTmBcOP-54" edge="1">
          <mxGeometry x="-0.4286" y="10" relative="1" as="geometry">
            <mxPoint x="350" y="355" as="sourcePoint" />
            <mxPoint x="510" y="355" as="targetPoint" />
            <mxPoint as="offset" />
          </mxGeometry>
        </mxCell>
        <mxCell id="XWE8DCE6unmG_nTmBcOP-15" value="1..*" style="edgeLabel;html=1;align=center;verticalAlign=middle;resizable=0;points=[];" parent="XWE8DCE6unmG_nTmBcOP-14" vertex="1" connectable="0">
          <mxGeometry x="0.2222" y="1" relative="1" as="geometry">
            <mxPoint x="9" y="15" as="offset" />
          </mxGeometry>
        </mxCell>
        <mxCell id="XWE8DCE6unmG_nTmBcOP-16" value="Transition" style="swimlane;fontStyle=0;align=center;verticalAlign=top;childLayout=stackLayout;horizontal=1;startSize=26;horizontalStack=0;resizeParent=1;resizeLast=0;collapsible=1;marginBottom=0;rounded=0;shadow=0;strokeWidth=1;" parent="8-NGuv1zwmkcrwSwAf9n-1" vertex="1">
          <mxGeometry x="580" y="857.01" width="160" height="86" as="geometry">
            <mxRectangle x="550" y="140" width="160" height="26" as="alternateBounds" />
          </mxGeometry>
        </mxCell>
        <mxCell id="XWE8DCE6unmG_nTmBcOP-17" value="" style="line;html=1;strokeWidth=1;align=left;verticalAlign=middle;spacingTop=-1;spacingLeft=3;spacingRight=3;rotatable=0;labelPosition=right;points=[];portConstraint=eastwest;" parent="XWE8DCE6unmG_nTmBcOP-16" vertex="1">
          <mxGeometry y="26" width="160" height="8" as="geometry" />
        </mxCell>
        <mxCell id="XWE8DCE6unmG_nTmBcOP-18" value="+perform_transition()" style="text;align=left;verticalAlign=top;spacingLeft=4;spacingRight=4;overflow=hidden;rotatable=0;points=[[0,0.5],[1,0.5]];portConstraint=eastwest;" parent="XWE8DCE6unmG_nTmBcOP-16" vertex="1">
          <mxGeometry y="34" width="160" height="26" as="geometry" />
        </mxCell>
        <mxCell id="XWE8DCE6unmG_nTmBcOP-19" value="1" style="endArrow=open;html=1;endSize=12;startArrow=diamondThin;startSize=14;startFill=1;edgeStyle=orthogonalEdgeStyle;align=left;verticalAlign=bottom;exitX=1;exitY=0.101;exitDx=0;exitDy=0;exitPerimeter=0;entryX=0.25;entryY=0;entryDx=0;entryDy=0;rounded=0;" parent="8-NGuv1zwmkcrwSwAf9n-1" source="XWE8DCE6unmG_nTmBcOP-9" target="XWE8DCE6unmG_nTmBcOP-16" edge="1">
          <mxGeometry x="-0.7745" relative="1" as="geometry">
            <mxPoint x="414" y="805.01" as="sourcePoint" />
            <mxPoint x="560" y="775.01" as="targetPoint" />
            <mxPoint as="offset" />
            <Array as="points">
              <mxPoint x="440" y="830" />
              <mxPoint x="620" y="830" />
            </Array>
          </mxGeometry>
        </mxCell>
        <mxCell id="XWE8DCE6unmG_nTmBcOP-20" value="0..*" style="edgeLabel;html=1;align=center;verticalAlign=middle;resizable=0;points=[];" parent="XWE8DCE6unmG_nTmBcOP-19" vertex="1" connectable="0">
          <mxGeometry x="0.2222" y="1" relative="1" as="geometry">
            <mxPoint x="47" y="13.09" as="offset" />
          </mxGeometry>
        </mxCell>
        <mxCell id="XWE8DCE6unmG_nTmBcOP-21" value="1" style="endArrow=open;html=1;endSize=12;startArrow=diamondThin;startSize=14;startFill=1;align=left;verticalAlign=bottom;entryX=1;entryY=0.5;entryDx=0;entryDy=0;exitX=0;exitY=0.5;exitDx=0;exitDy=0;rounded=0;" parent="8-NGuv1zwmkcrwSwAf9n-1" source="XWE8DCE6unmG_nTmBcOP-18" target="XWE8DCE6unmG_nTmBcOP-13" edge="1">
          <mxGeometry x="-0.7143" y="21" relative="1" as="geometry">
            <mxPoint x="530" y="738.01" as="sourcePoint" />
            <mxPoint x="470" y="840.01" as="targetPoint" />
            <mxPoint as="offset" />
          </mxGeometry>
        </mxCell>
        <mxCell id="XWE8DCE6unmG_nTmBcOP-22" value="1" style="edgeLabel;html=1;align=center;verticalAlign=middle;resizable=0;points=[];" parent="XWE8DCE6unmG_nTmBcOP-21" vertex="1" connectable="0">
          <mxGeometry x="0.4103" y="1" relative="1" as="geometry">
            <mxPoint x="-20.04" y="-12" as="offset" />
          </mxGeometry>
        </mxCell>
        <mxCell id="XWE8DCE6unmG_nTmBcOP-23" value="from" style="edgeLabel;html=1;align=center;verticalAlign=middle;resizable=0;points=[];" parent="XWE8DCE6unmG_nTmBcOP-21" vertex="1" connectable="0">
          <mxGeometry x="0.3761" y="4" relative="1" as="geometry">
            <mxPoint x="26" y="5" as="offset" />
          </mxGeometry>
        </mxCell>
        <mxCell id="XWE8DCE6unmG_nTmBcOP-24" value="" style="endArrow=open;html=1;endSize=12;startArrow=diamondThin;startSize=14;startFill=1;align=left;verticalAlign=bottom;entryX=1;entryY=0.077;entryDx=0;entryDy=0;exitX=0;exitY=0.25;exitDx=0;exitDy=0;entryPerimeter=0;rounded=0;" parent="8-NGuv1zwmkcrwSwAf9n-1" source="XWE8DCE6unmG_nTmBcOP-16" target="XWE8DCE6unmG_nTmBcOP-11" edge="1">
          <mxGeometry x="-0.3333" relative="1" as="geometry">
            <mxPoint x="660" y="645.01" as="sourcePoint" />
            <mxPoint x="440" y="716.01" as="targetPoint" />
            <mxPoint as="offset" />
          </mxGeometry>
        </mxCell>
        <mxCell id="XWE8DCE6unmG_nTmBcOP-25" value="1" style="edgeLabel;html=1;align=center;verticalAlign=middle;resizable=0;points=[];" parent="XWE8DCE6unmG_nTmBcOP-24" vertex="1" connectable="0">
          <mxGeometry x="0.2222" y="1" relative="1" as="geometry">
            <mxPoint x="-33.99" y="-14" as="offset" />
          </mxGeometry>
        </mxCell>
        <mxCell id="XWE8DCE6unmG_nTmBcOP-26" value="to" style="edgeLabel;html=1;align=center;verticalAlign=middle;resizable=0;points=[];" parent="XWE8DCE6unmG_nTmBcOP-24" vertex="1" connectable="0">
          <mxGeometry x="0.5315" y="4" relative="1" as="geometry">
            <mxPoint x="37.52" y="-12.559999999999999" as="offset" />
          </mxGeometry>
        </mxCell>
        <mxCell id="XWE8DCE6unmG_nTmBcOP-27" value="1" style="edgeLabel;html=1;align=center;verticalAlign=middle;resizable=0;points=[];" parent="XWE8DCE6unmG_nTmBcOP-24" vertex="1" connectable="0">
          <mxGeometry x="-0.8112" y="-1" relative="1" as="geometry">
            <mxPoint x="3.13" y="-10.66" as="offset" />
          </mxGeometry>
        </mxCell>
        <mxCell id="TSgIcggyJDQWd0qx4Q_5-27" style="rounded=0;orthogonalLoop=1;jettySize=auto;html=1;entryX=0.5;entryY=1;entryDx=0;entryDy=0;entryPerimeter=0;startArrow=none;startFill=0;dashed=1;endArrow=none;endFill=0;" edge="1" parent="8-NGuv1zwmkcrwSwAf9n-1" source="XWE8DCE6unmG_nTmBcOP-28" target="XWE8DCE6unmG_nTmBcOP-49">
          <mxGeometry relative="1" as="geometry" />
        </mxCell>
        <mxCell id="XWE8DCE6unmG_nTmBcOP-28" value="ElementDecorator" style="swimlane;fontStyle=2;align=center;verticalAlign=top;childLayout=stackLayout;horizontal=1;startSize=26;horizontalStack=0;resizeParent=1;resizeLast=0;collapsible=1;marginBottom=0;rounded=0;shadow=0;strokeWidth=1;" parent="8-NGuv1zwmkcrwSwAf9n-1" vertex="1">
          <mxGeometry x="780" y="874.01" width="160" height="64" as="geometry">
            <mxRectangle x="550" y="140" width="160" height="26" as="alternateBounds" />
          </mxGeometry>
        </mxCell>
        <mxCell id="XWE8DCE6unmG_nTmBcOP-29" value="" style="line;html=1;strokeWidth=1;align=left;verticalAlign=middle;spacingTop=-1;spacingLeft=3;spacingRight=3;rotatable=0;labelPosition=right;points=[];portConstraint=eastwest;" parent="XWE8DCE6unmG_nTmBcOP-28" vertex="1">
          <mxGeometry y="26" width="160" height="8" as="geometry" />
        </mxCell>
        <mxCell id="XWE8DCE6unmG_nTmBcOP-30" value="+display_element()" style="text;align=left;verticalAlign=top;spacingLeft=4;spacingRight=4;overflow=hidden;rotatable=0;points=[[0,0.5],[1,0.5]];portConstraint=eastwest;rounded=0;shadow=0;html=0;" parent="XWE8DCE6unmG_nTmBcOP-28" vertex="1">
          <mxGeometry y="34" width="160" height="26" as="geometry" />
        </mxCell>
        <mxCell id="XWE8DCE6unmG_nTmBcOP-31" value="&lt;div&gt;Allowing &lt;b&gt;images &lt;/b&gt;may increase the complexity of the project:&lt;/div&gt;&lt;div&gt;- how to handle &lt;b&gt;different sizes&lt;/b&gt;?&lt;/div&gt;&lt;div&gt;- how to handle varying &lt;b&gt;height/width rations&lt;/b&gt;?&lt;br&gt;&lt;/div&gt;&lt;div&gt;- how to handle &lt;b&gt;lack of images&lt;/b&gt;?&lt;br&gt;&lt;/div&gt;&lt;div&gt;- how to handle &lt;b&gt;copyright&lt;/b&gt;?&lt;br&gt;&lt;/div&gt;" style="shape=note;size=15;align=left;spacingLeft=10;html=1;whiteSpace=wrap;fillColor=#fff2cc;strokeColor=#d6b656;" parent="8-NGuv1zwmkcrwSwAf9n-1" vertex="1">
          <mxGeometry x="190" y="75" width="250" height="120" as="geometry" />
        </mxCell>
        <mxCell id="XWE8DCE6unmG_nTmBcOP-32" value="" style="edgeStyle=none;endArrow=none;exitX=0.5;exitY=1;dashed=1;html=1;exitDx=0;exitDy=0;exitPerimeter=0;entryX=0.5;entryY=0;entryDx=0;entryDy=0;" parent="8-NGuv1zwmkcrwSwAf9n-1" source="XWE8DCE6unmG_nTmBcOP-31" target="XWE8DCE6unmG_nTmBcOP-0" edge="1">
          <mxGeometry x="1" relative="1" as="geometry">
            <mxPoint x="530" y="277" as="targetPoint" />
          </mxGeometry>
        </mxCell>
        <mxCell id="XWE8DCE6unmG_nTmBcOP-33" value="Operation" style="swimlane;fontStyle=0;align=center;verticalAlign=top;childLayout=stackLayout;horizontal=1;startSize=26;horizontalStack=0;resizeParent=1;resizeLast=0;collapsible=1;marginBottom=0;rounded=0;shadow=0;strokeWidth=1;" parent="8-NGuv1zwmkcrwSwAf9n-1" vertex="1">
          <mxGeometry x="1000" y="813.01" width="160" height="64" as="geometry">
            <mxRectangle x="550" y="140" width="160" height="26" as="alternateBounds" />
          </mxGeometry>
        </mxCell>
        <mxCell id="XWE8DCE6unmG_nTmBcOP-34" value="" style="line;html=1;strokeWidth=1;align=left;verticalAlign=middle;spacingTop=-1;spacingLeft=3;spacingRight=3;rotatable=0;labelPosition=right;points=[];portConstraint=eastwest;" parent="XWE8DCE6unmG_nTmBcOP-33" vertex="1">
          <mxGeometry y="26" width="160" height="8" as="geometry" />
        </mxCell>
        <mxCell id="XWE8DCE6unmG_nTmBcOP-35" value="+display_element()" style="text;align=left;verticalAlign=top;spacingLeft=4;spacingRight=4;overflow=hidden;rotatable=0;points=[[0,0.5],[1,0.5]];portConstraint=eastwest;rounded=0;shadow=0;html=0;" parent="XWE8DCE6unmG_nTmBcOP-33" vertex="1">
          <mxGeometry y="34" width="160" height="26" as="geometry" />
        </mxCell>
        <mxCell id="XWE8DCE6unmG_nTmBcOP-36" value="1" style="endArrow=open;html=1;endSize=12;startArrow=diamondThin;startSize=14;startFill=0;align=left;verticalAlign=bottom;entryX=0;entryY=0.5;entryDx=0;entryDy=0;rounded=0;exitX=1;exitY=0.5;exitDx=0;exitDy=0;" parent="8-NGuv1zwmkcrwSwAf9n-1" source="XWE8DCE6unmG_nTmBcOP-16" target="XWE8DCE6unmG_nTmBcOP-30" edge="1">
          <mxGeometry x="-0.8719" y="-10" relative="1" as="geometry">
            <mxPoint x="760" y="780" as="sourcePoint" />
            <mxPoint x="180" y="915.01" as="targetPoint" />
            <mxPoint as="offset" />
          </mxGeometry>
        </mxCell>
        <mxCell id="XWE8DCE6unmG_nTmBcOP-37" value="1" style="edgeLabel;html=1;align=center;verticalAlign=middle;resizable=0;points=[];" parent="XWE8DCE6unmG_nTmBcOP-36" vertex="1" connectable="0">
          <mxGeometry x="0.4747" y="1" relative="1" as="geometry">
            <mxPoint x="-5.1" y="-15.1" as="offset" />
          </mxGeometry>
        </mxCell>
        <mxCell id="XWE8DCE6unmG_nTmBcOP-38" value="Condition" style="swimlane;fontStyle=0;align=center;verticalAlign=top;childLayout=stackLayout;horizontal=1;startSize=26;horizontalStack=0;resizeParent=1;resizeLast=0;collapsible=1;marginBottom=0;rounded=0;shadow=0;strokeWidth=1;" parent="8-NGuv1zwmkcrwSwAf9n-1" vertex="1">
          <mxGeometry x="1000" y="923.01" width="160" height="64" as="geometry">
            <mxRectangle x="550" y="140" width="160" height="26" as="alternateBounds" />
          </mxGeometry>
        </mxCell>
        <mxCell id="XWE8DCE6unmG_nTmBcOP-39" value="" style="line;html=1;strokeWidth=1;align=left;verticalAlign=middle;spacingTop=-1;spacingLeft=3;spacingRight=3;rotatable=0;labelPosition=right;points=[];portConstraint=eastwest;" parent="XWE8DCE6unmG_nTmBcOP-38" vertex="1">
          <mxGeometry y="26" width="160" height="8" as="geometry" />
        </mxCell>
        <mxCell id="XWE8DCE6unmG_nTmBcOP-40" value="+display_element()" style="text;align=left;verticalAlign=top;spacingLeft=4;spacingRight=4;overflow=hidden;rotatable=0;points=[[0,0.5],[1,0.5]];portConstraint=eastwest;rounded=0;shadow=0;html=0;" parent="XWE8DCE6unmG_nTmBcOP-38" vertex="1">
          <mxGeometry y="34" width="160" height="26" as="geometry" />
        </mxCell>
        <mxCell id="XWE8DCE6unmG_nTmBcOP-41" value="" style="endArrow=block;endSize=10;endFill=0;shadow=0;strokeWidth=1;rounded=0;elbow=vertical;entryX=1;entryY=0.5;entryDx=0;entryDy=0;edgeStyle=orthogonalEdgeStyle;" parent="8-NGuv1zwmkcrwSwAf9n-1" source="XWE8DCE6unmG_nTmBcOP-33" target="XWE8DCE6unmG_nTmBcOP-28" edge="1">
          <mxGeometry width="160" relative="1" as="geometry">
            <mxPoint x="790" y="1233.01" as="sourcePoint" />
            <mxPoint x="730" y="1198.01" as="targetPoint" />
          </mxGeometry>
        </mxCell>
        <mxCell id="XWE8DCE6unmG_nTmBcOP-42" value="ScenarioElement" style="swimlane;fontStyle=2;align=center;verticalAlign=top;childLayout=stackLayout;horizontal=1;startSize=26;horizontalStack=0;resizeParent=1;resizeLast=0;collapsible=1;marginBottom=0;rounded=0;shadow=0;strokeWidth=1;" parent="8-NGuv1zwmkcrwSwAf9n-1" vertex="1">
          <mxGeometry x="280" y="625.01" width="160" height="86" as="geometry">
            <mxRectangle x="550" y="140" width="160" height="26" as="alternateBounds" />
          </mxGeometry>
        </mxCell>
        <mxCell id="XWE8DCE6unmG_nTmBcOP-43" value="+title" style="text;align=left;verticalAlign=top;spacingLeft=4;spacingRight=4;overflow=hidden;rotatable=0;points=[[0,0.5],[1,0.5]];portConstraint=eastwest;" parent="XWE8DCE6unmG_nTmBcOP-42" vertex="1">
          <mxGeometry y="26" width="160" height="26" as="geometry" />
        </mxCell>
        <mxCell id="XWE8DCE6unmG_nTmBcOP-44" value="" style="line;html=1;strokeWidth=1;align=left;verticalAlign=middle;spacingTop=-1;spacingLeft=3;spacingRight=3;rotatable=0;labelPosition=right;points=[];portConstraint=eastwest;" parent="XWE8DCE6unmG_nTmBcOP-42" vertex="1">
          <mxGeometry y="52" width="160" height="8" as="geometry" />
        </mxCell>
        <mxCell id="XWE8DCE6unmG_nTmBcOP-45" value="+display_element()" style="text;align=left;verticalAlign=top;spacingLeft=4;spacingRight=4;overflow=hidden;rotatable=0;points=[[0,0.5],[1,0.5]];portConstraint=eastwest;rounded=0;shadow=0;html=0;" parent="XWE8DCE6unmG_nTmBcOP-42" vertex="1">
          <mxGeometry y="60" width="160" height="26" as="geometry" />
        </mxCell>
        <mxCell id="XWE8DCE6unmG_nTmBcOP-46" value="" style="endArrow=block;endSize=10;endFill=0;shadow=0;strokeWidth=1;rounded=0;elbow=vertical;entryX=0.5;entryY=1;entryDx=0;entryDy=0;exitX=0.5;exitY=0;exitDx=0;exitDy=0;" parent="8-NGuv1zwmkcrwSwAf9n-1" source="XWE8DCE6unmG_nTmBcOP-9" target="XWE8DCE6unmG_nTmBcOP-42" edge="1">
          <mxGeometry width="160" relative="1" as="geometry">
            <mxPoint x="360" y="1055.01" as="sourcePoint" />
            <mxPoint x="360" y="999.01" as="targetPoint" />
          </mxGeometry>
        </mxCell>
        <mxCell id="XWE8DCE6unmG_nTmBcOP-47" value="" style="endArrow=block;endSize=10;endFill=0;shadow=0;strokeWidth=1;rounded=0;elbow=vertical;exitX=0.5;exitY=0;exitDx=0;exitDy=0;edgeStyle=orthogonalEdgeStyle;entryX=0.81;entryY=1.093;entryDx=0;entryDy=0;entryPerimeter=0;" parent="8-NGuv1zwmkcrwSwAf9n-1" source="XWE8DCE6unmG_nTmBcOP-16" target="XWE8DCE6unmG_nTmBcOP-45" edge="1">
          <mxGeometry width="160" relative="1" as="geometry">
            <mxPoint x="360" y="705.01" as="sourcePoint" />
            <mxPoint x="400" y="735.01" as="targetPoint" />
            <Array as="points">
              <mxPoint x="660" y="765.01" />
              <mxPoint x="410" y="765.01" />
            </Array>
          </mxGeometry>
        </mxCell>
        <mxCell id="XWE8DCE6unmG_nTmBcOP-48" value="" style="endArrow=block;endSize=10;endFill=0;shadow=0;strokeWidth=1;rounded=0;elbow=vertical;exitX=0;exitY=0.5;exitDx=0;exitDy=0;edgeStyle=orthogonalEdgeStyle;entryX=1;entryY=0.5;entryDx=0;entryDy=0;" parent="8-NGuv1zwmkcrwSwAf9n-1" source="XWE8DCE6unmG_nTmBcOP-38" target="XWE8DCE6unmG_nTmBcOP-30" edge="1">
          <mxGeometry width="160" relative="1" as="geometry">
            <mxPoint x="1000" y="867.8671428571429" as="sourcePoint" />
            <mxPoint x="940" y="903.01" as="targetPoint" />
            <Array as="points">
              <mxPoint x="970" y="955.01" />
              <mxPoint x="970" y="921.01" />
            </Array>
          </mxGeometry>
        </mxCell>
        <mxCell id="XWE8DCE6unmG_nTmBcOP-49" value="&lt;div&gt;&lt;b&gt;Operation: &lt;/b&gt;Always perform action&lt;br&gt;(e.g. change variable value)&lt;br&gt;&lt;/div&gt;&lt;div&gt;&lt;br&gt;&lt;/div&gt;&lt;div&gt;&lt;b&gt;Condition:&lt;/b&gt; Check for something, then perform action &lt;br&gt;(e.g. only display next inject if variable is above given threshold)&lt;br&gt;&lt;/div&gt;&lt;b&gt;&lt;/b&gt;" style="shape=note;size=15;align=left;spacingLeft=10;html=1;whiteSpace=wrap;fillColor=#fff2cc;strokeColor=#d6b656;" parent="8-NGuv1zwmkcrwSwAf9n-1" vertex="1">
          <mxGeometry x="820" y="657.49" width="250" height="120" as="geometry" />
        </mxCell>
        <mxCell id="XWE8DCE6unmG_nTmBcOP-54" value="Story" style="swimlane;fontStyle=2;align=center;verticalAlign=top;childLayout=stackLayout;horizontal=1;startSize=26;horizontalStack=0;resizeParent=1;resizeLast=0;collapsible=1;marginBottom=0;rounded=0;shadow=0;strokeWidth=1;" parent="8-NGuv1zwmkcrwSwAf9n-1" vertex="1">
          <mxGeometry x="280" y="455" width="160" height="70" as="geometry">
            <mxRectangle x="550" y="140" width="160" height="26" as="alternateBounds" />
          </mxGeometry>
        </mxCell>
        <mxCell id="XWE8DCE6unmG_nTmBcOP-55" value="+title" style="text;align=left;verticalAlign=top;spacingLeft=4;spacingRight=4;overflow=hidden;rotatable=0;points=[[0,0.5],[1,0.5]];portConstraint=eastwest;" parent="XWE8DCE6unmG_nTmBcOP-54" vertex="1">
          <mxGeometry y="26" width="160" height="26" as="geometry" />
        </mxCell>
        <mxCell id="XWE8DCE6unmG_nTmBcOP-56" value="" style="line;html=1;strokeWidth=1;align=left;verticalAlign=middle;spacingTop=-1;spacingLeft=3;spacingRight=3;rotatable=0;labelPosition=right;points=[];portConstraint=eastwest;" parent="XWE8DCE6unmG_nTmBcOP-54" vertex="1">
          <mxGeometry y="52" width="160" height="8" as="geometry" />
        </mxCell>
        <mxCell id="XWE8DCE6unmG_nTmBcOP-58" value="1" style="endArrow=open;html=1;endSize=12;startArrow=diamondThin;startSize=14;startFill=1;edgeStyle=orthogonalEdgeStyle;align=left;verticalAlign=bottom;exitX=0.5;exitY=1;exitDx=0;exitDy=0;rounded=0;entryX=0.5;entryY=0;entryDx=0;entryDy=0;" parent="8-NGuv1zwmkcrwSwAf9n-1" source="XWE8DCE6unmG_nTmBcOP-54" target="XWE8DCE6unmG_nTmBcOP-42" edge="1">
          <mxGeometry x="-0.4286" y="10" relative="1" as="geometry">
            <mxPoint x="361.27999999999975" y="566.0020000000002" as="sourcePoint" />
            <mxPoint x="530" y="465.01" as="targetPoint" />
            <mxPoint as="offset" />
            <Array as="points" />
          </mxGeometry>
        </mxCell>
        <mxCell id="XWE8DCE6unmG_nTmBcOP-59" value="1..*" style="edgeLabel;html=1;align=center;verticalAlign=middle;resizable=0;points=[];" parent="XWE8DCE6unmG_nTmBcOP-58" vertex="1" connectable="0">
          <mxGeometry x="0.2222" y="1" relative="1" as="geometry">
            <mxPoint x="9" y="15" as="offset" />
          </mxGeometry>
        </mxCell>
        <mxCell id="XWE8DCE6unmG_nTmBcOP-60" value="ScenarioDesigner" style="swimlane;fontStyle=0;align=center;verticalAlign=top;childLayout=stackLayout;horizontal=1;startSize=26;horizontalStack=0;resizeParent=1;resizeLast=0;collapsible=1;marginBottom=0;rounded=0;shadow=0;strokeWidth=1;" parent="8-NGuv1zwmkcrwSwAf9n-1" vertex="1">
          <mxGeometry x="585" y="235" width="160" height="50" as="geometry">
            <mxRectangle x="550" y="140" width="160" height="26" as="alternateBounds" />
          </mxGeometry>
        </mxCell>
        <mxCell id="XWE8DCE6unmG_nTmBcOP-65" value="" style="line;html=1;strokeWidth=1;align=left;verticalAlign=middle;spacingTop=-1;spacingLeft=3;spacingRight=3;rotatable=0;labelPosition=right;points=[];portConstraint=eastwest;" parent="XWE8DCE6unmG_nTmBcOP-60" vertex="1">
          <mxGeometry y="26" width="160" height="8" as="geometry" />
        </mxCell>
        <mxCell id="XWE8DCE6unmG_nTmBcOP-69" value="commons" style="shape=folder;fontStyle=1;spacingTop=10;tabWidth=40;tabHeight=14;tabPosition=left;html=1;verticalAlign=top;align=left;" parent="8-NGuv1zwmkcrwSwAf9n-1" vertex="1">
          <mxGeometry x="565" y="20" width="220" height="150" as="geometry" />
        </mxCell>
        <mxCell id="XWE8DCE6unmG_nTmBcOP-71" value="" style="endArrow=block;endSize=10;endFill=0;shadow=0;strokeWidth=1;rounded=0;elbow=vertical;entryX=0.5;entryY=1;entryDx=0;entryDy=0;exitX=0.5;exitY=0;exitDx=0;exitDy=0;" parent="8-NGuv1zwmkcrwSwAf9n-1" source="XWE8DCE6unmG_nTmBcOP-60" target="XWE8DCE6unmG_nTmBcOP-73" edge="1">
          <mxGeometry width="160" relative="1" as="geometry">
            <mxPoint x="664.29" y="234.00000000000023" as="sourcePoint" />
            <mxPoint x="664.29" y="140.00000000000023" as="targetPoint" />
          </mxGeometry>
        </mxCell>
        <mxCell id="XWE8DCE6unmG_nTmBcOP-73" value="User" style="swimlane;fontStyle=2;align=center;verticalAlign=top;childLayout=stackLayout;horizontal=1;startSize=26;horizontalStack=0;resizeParent=1;resizeLast=0;collapsible=1;marginBottom=0;rounded=0;shadow=0;strokeWidth=1;" parent="8-NGuv1zwmkcrwSwAf9n-1" vertex="1">
          <mxGeometry x="585" y="60" width="160" height="90" as="geometry">
            <mxRectangle x="550" y="140" width="160" height="26" as="alternateBounds" />
          </mxGeometry>
        </mxCell>
        <mxCell id="XWE8DCE6unmG_nTmBcOP-74" value="+ username" style="text;align=left;verticalAlign=top;spacingLeft=4;spacingRight=4;overflow=hidden;rotatable=0;points=[[0,0.5],[1,0.5]];portConstraint=eastwest;" parent="XWE8DCE6unmG_nTmBcOP-73" vertex="1">
          <mxGeometry y="26" width="160" height="26" as="geometry" />
        </mxCell>
        <mxCell id="XWE8DCE6unmG_nTmBcOP-75" value="- pass_hash" style="text;align=left;verticalAlign=top;spacingLeft=4;spacingRight=4;overflow=hidden;rotatable=0;points=[[0,0.5],[1,0.5]];portConstraint=eastwest;rounded=0;shadow=0;html=0;" parent="XWE8DCE6unmG_nTmBcOP-73" vertex="1">
          <mxGeometry y="52" width="160" height="26" as="geometry" />
        </mxCell>
        <mxCell id="XWE8DCE6unmG_nTmBcOP-78" value="" style="line;html=1;strokeWidth=1;align=left;verticalAlign=middle;spacingTop=-1;spacingLeft=3;spacingRight=3;rotatable=0;labelPosition=right;points=[];portConstraint=eastwest;" parent="XWE8DCE6unmG_nTmBcOP-73" vertex="1">
          <mxGeometry y="78" width="160" height="8" as="geometry" />
        </mxCell>
        <mxCell id="XWE8DCE6unmG_nTmBcOP-79" value="0..*" style="endArrow=open;html=1;endSize=12;startArrow=diamondThin;startSize=14;startFill=0;align=left;verticalAlign=bottom;entryX=0;entryY=0.5;entryDx=0;entryDy=0;rounded=0;exitX=1.006;exitY=0.114;exitDx=0;exitDy=0;exitPerimeter=0;" parent="8-NGuv1zwmkcrwSwAf9n-1" source="XWE8DCE6unmG_nTmBcOP-0" target="XWE8DCE6unmG_nTmBcOP-60" edge="1">
          <mxGeometry x="-0.75" y="-5" relative="1" as="geometry">
            <mxPoint x="119.99999999999994" y="425.0020000000002" as="sourcePoint" />
            <mxPoint x="120" y="284" as="targetPoint" />
            <mxPoint as="offset" />
          </mxGeometry>
        </mxCell>
        <mxCell id="XWE8DCE6unmG_nTmBcOP-81" value="edited_by" style="edgeLabel;html=1;align=center;verticalAlign=middle;resizable=0;points=[];" parent="XWE8DCE6unmG_nTmBcOP-79" vertex="1" connectable="0">
          <mxGeometry x="0.1434" relative="1" as="geometry">
            <mxPoint x="9.94" y="-14.86" as="offset" />
          </mxGeometry>
        </mxCell>
        <mxCell id="XWE8DCE6unmG_nTmBcOP-84" style="edgeStyle=none;rounded=0;orthogonalLoop=1;jettySize=auto;html=1;entryX=0.5;entryY=1;entryDx=0;entryDy=0;dashed=1;endArrow=none;endFill=0;" parent="8-NGuv1zwmkcrwSwAf9n-1" source="XWE8DCE6unmG_nTmBcOP-83" target="XWE8DCE6unmG_nTmBcOP-16" edge="1">
          <mxGeometry relative="1" as="geometry" />
        </mxCell>
        <mxCell id="XWE8DCE6unmG_nTmBcOP-83" value="&lt;div&gt;If an inject has &lt;b&gt;no transitions&lt;/b&gt; it is an &lt;b&gt;exit point.&lt;/b&gt;&lt;/div&gt;&lt;div&gt;If an inject has only &lt;b&gt;one transition &lt;/b&gt;it is an &lt;b&gt;informative inject.&lt;/b&gt;&lt;/div&gt;&lt;div&gt;If an inject has multiple transitions it is a &lt;b&gt;choice inject&lt;/b&gt;.&lt;br&gt;&lt;b&gt;&lt;/b&gt;&lt;/div&gt;" style="shape=note;size=15;align=left;spacingLeft=10;html=1;whiteSpace=wrap;fillColor=#fff2cc;strokeColor=#d6b656;" parent="8-NGuv1zwmkcrwSwAf9n-1" vertex="1">
          <mxGeometry x="710" y="1160" width="250" height="120" as="geometry" />
        </mxCell>
        <mxCell id="TTgoCMx9XMNW56YPVa4S-1" style="edgeStyle=none;rounded=0;orthogonalLoop=1;jettySize=auto;html=1;startArrow=none;startFill=0;endArrow=none;endFill=0;dashed=1;entryX=1;entryY=0.5;entryDx=0;entryDy=0;" parent="8-NGuv1zwmkcrwSwAf9n-1" source="TTgoCMx9XMNW56YPVa4S-0" target="XWE8DCE6unmG_nTmBcOP-3" edge="1">
          <mxGeometry relative="1" as="geometry">
            <mxPoint x="210" y="335" as="targetPoint" />
          </mxGeometry>
        </mxCell>
        <mxCell id="TTgoCMx9XMNW56YPVa4S-0" value="&lt;div&gt;Saving a &lt;b&gt;copy&lt;/b&gt; of previous scenarios upon editing allows &lt;b&gt;versioning&lt;/b&gt;. &lt;br&gt;&lt;/div&gt;&lt;div&gt;It allows allows to &lt;b&gt;evaluate&lt;/b&gt; how changes to a scenario &lt;b&gt;impact game statistics&lt;/b&gt;.&lt;/div&gt;" style="shape=note;size=15;align=left;spacingLeft=10;html=1;whiteSpace=wrap;fillColor=#fff2cc;strokeColor=#d6b656;" parent="8-NGuv1zwmkcrwSwAf9n-1" vertex="1">
          <mxGeometry x="520" y="305" width="250" height="90" as="geometry" />
        </mxCell>
        <mxCell id="FiOCYFPAyBkpIuonJjLS-0" value="Task" style="swimlane;fontStyle=0;align=center;verticalAlign=top;childLayout=stackLayout;horizontal=1;startSize=26;horizontalStack=0;resizeParent=1;resizeLast=0;collapsible=1;marginBottom=0;rounded=0;shadow=0;strokeWidth=1;" parent="8-NGuv1zwmkcrwSwAf9n-1" vertex="1">
          <mxGeometry x="485" y="1010" width="160" height="90" as="geometry">
            <mxRectangle x="550" y="140" width="160" height="26" as="alternateBounds" />
          </mxGeometry>
        </mxCell>
        <mxCell id="FiOCYFPAyBkpIuonJjLS-2" value="+ iframe" style="text;align=left;verticalAlign=top;spacingLeft=4;spacingRight=4;overflow=hidden;rotatable=0;points=[[0,0.5],[1,0.5]];portConstraint=eastwest;rounded=0;shadow=0;html=0;" parent="FiOCYFPAyBkpIuonJjLS-0" vertex="1">
          <mxGeometry y="26" width="160" height="26" as="geometry" />
        </mxCell>
        <mxCell id="FiOCYFPAyBkpIuonJjLS-3" value="" style="line;html=1;strokeWidth=1;align=left;verticalAlign=middle;spacingTop=-1;spacingLeft=3;spacingRight=3;rotatable=0;labelPosition=right;points=[];portConstraint=eastwest;" parent="FiOCYFPAyBkpIuonJjLS-0" vertex="1">
          <mxGeometry y="52" width="160" height="8" as="geometry" />
        </mxCell>
        <mxCell id="FiOCYFPAyBkpIuonJjLS-4" value="+display_inject()" style="text;align=left;verticalAlign=top;spacingLeft=4;spacingRight=4;overflow=hidden;rotatable=0;points=[[0,0.5],[1,0.5]];portConstraint=eastwest;rounded=0;shadow=0;html=0;" parent="FiOCYFPAyBkpIuonJjLS-0" vertex="1">
          <mxGeometry y="60" width="160" height="26" as="geometry" />
        </mxCell>
        <mxCell id="FiOCYFPAyBkpIuonJjLS-5" value="" style="endArrow=block;endSize=10;endFill=0;shadow=0;strokeWidth=1;rounded=0;elbow=vertical;entryX=0.5;entryY=1;entryDx=0;entryDy=0;exitX=0.5;exitY=0;exitDx=0;exitDy=0;edgeStyle=orthogonalEdgeStyle;" parent="8-NGuv1zwmkcrwSwAf9n-1" source="FiOCYFPAyBkpIuonJjLS-0" target="XWE8DCE6unmG_nTmBcOP-9" edge="1">
          <mxGeometry width="160" relative="1" as="geometry">
            <mxPoint x="350" y="1024" as="sourcePoint" />
            <mxPoint x="350" y="930" as="targetPoint" />
            <Array as="points">
              <mxPoint x="565" y="980" />
              <mxPoint x="360" y="980" />
            </Array>
          </mxGeometry>
        </mxCell>
        <mxCell id="FiOCYFPAyBkpIuonJjLS-7" style="rounded=0;orthogonalLoop=1;jettySize=auto;html=1;entryX=0.517;entryY=1.167;entryDx=0;entryDy=0;dashed=1;endArrow=none;endFill=0;entryPerimeter=0;" parent="8-NGuv1zwmkcrwSwAf9n-1" source="FiOCYFPAyBkpIuonJjLS-6" target="FiOCYFPAyBkpIuonJjLS-4" edge="1">
          <mxGeometry relative="1" as="geometry" />
        </mxCell>
        <mxCell id="FiOCYFPAyBkpIuonJjLS-6" value="A task is a mini-game, that requires the learner to solve a puzzle. This will not show up in the prototype, but may be interesting future work and improve learning effects." style="shape=note;size=15;align=left;spacingLeft=10;html=1;whiteSpace=wrap;fillColor=#fff2cc;strokeColor=#d6b656;" parent="8-NGuv1zwmkcrwSwAf9n-1" vertex="1">
          <mxGeometry x="430" y="1160" width="250" height="90" as="geometry" />
        </mxCell>
        <mxCell id="g7Tcj6DI6biK1KqrzKwJ-0" value="InputInject" style="swimlane;fontStyle=0;align=center;verticalAlign=top;childLayout=stackLayout;horizontal=1;startSize=26;horizontalStack=0;resizeParent=1;resizeLast=0;collapsible=1;marginBottom=0;rounded=0;shadow=0;strokeWidth=1;" parent="8-NGuv1zwmkcrwSwAf9n-1" vertex="1">
          <mxGeometry x="280" y="1030" width="160" height="70" as="geometry">
            <mxRectangle x="550" y="140" width="160" height="26" as="alternateBounds" />
          </mxGeometry>
        </mxCell>
        <mxCell id="g7Tcj6DI6biK1KqrzKwJ-2" value="" style="line;html=1;strokeWidth=1;align=left;verticalAlign=middle;spacingTop=-1;spacingLeft=3;spacingRight=3;rotatable=0;labelPosition=right;points=[];portConstraint=eastwest;" parent="g7Tcj6DI6biK1KqrzKwJ-0" vertex="1">
          <mxGeometry y="26" width="160" height="8" as="geometry" />
        </mxCell>
        <mxCell id="g7Tcj6DI6biK1KqrzKwJ-3" value="+display_inject()" style="text;align=left;verticalAlign=top;spacingLeft=4;spacingRight=4;overflow=hidden;rotatable=0;points=[[0,0.5],[1,0.5]];portConstraint=eastwest;rounded=0;shadow=0;html=0;" parent="g7Tcj6DI6biK1KqrzKwJ-0" vertex="1">
          <mxGeometry y="34" width="160" height="26" as="geometry" />
        </mxCell>
        <mxCell id="g7Tcj6DI6biK1KqrzKwJ-4" value="" style="endArrow=block;endSize=10;endFill=0;shadow=0;strokeWidth=1;rounded=0;elbow=vertical;exitX=0.5;exitY=0;exitDx=0;exitDy=0;" parent="8-NGuv1zwmkcrwSwAf9n-1" source="g7Tcj6DI6biK1KqrzKwJ-0" edge="1">
          <mxGeometry width="160" relative="1" as="geometry">
            <mxPoint x="370" y="815.01" as="sourcePoint" />
            <mxPoint x="360" y="920" as="targetPoint" />
          </mxGeometry>
        </mxCell>
        <mxCell id="g7Tcj6DI6biK1KqrzKwJ-7" value="ChoiceInject" style="swimlane;fontStyle=0;align=center;verticalAlign=top;childLayout=stackLayout;horizontal=1;startSize=26;horizontalStack=0;resizeParent=1;resizeLast=0;collapsible=1;marginBottom=0;rounded=0;shadow=0;strokeWidth=1;" parent="8-NGuv1zwmkcrwSwAf9n-1" vertex="1">
          <mxGeometry x="80" y="1030" width="160" height="70" as="geometry">
            <mxRectangle x="550" y="140" width="160" height="26" as="alternateBounds" />
          </mxGeometry>
        </mxCell>
        <mxCell id="g7Tcj6DI6biK1KqrzKwJ-8" value="" style="line;html=1;strokeWidth=1;align=left;verticalAlign=middle;spacingTop=-1;spacingLeft=3;spacingRight=3;rotatable=0;labelPosition=right;points=[];portConstraint=eastwest;" parent="g7Tcj6DI6biK1KqrzKwJ-7" vertex="1">
          <mxGeometry y="26" width="160" height="8" as="geometry" />
        </mxCell>
        <mxCell id="g7Tcj6DI6biK1KqrzKwJ-9" value="+display_inject()" style="text;align=left;verticalAlign=top;spacingLeft=4;spacingRight=4;overflow=hidden;rotatable=0;points=[[0,0.5],[1,0.5]];portConstraint=eastwest;rounded=0;shadow=0;html=0;" parent="g7Tcj6DI6biK1KqrzKwJ-7" vertex="1">
          <mxGeometry y="34" width="160" height="26" as="geometry" />
        </mxCell>
        <mxCell id="g7Tcj6DI6biK1KqrzKwJ-11" value="" style="endArrow=block;endSize=10;endFill=0;shadow=0;strokeWidth=1;rounded=0;elbow=vertical;exitX=0.5;exitY=0;exitDx=0;exitDy=0;edgeStyle=orthogonalEdgeStyle;" parent="8-NGuv1zwmkcrwSwAf9n-1" source="g7Tcj6DI6biK1KqrzKwJ-7" edge="1">
          <mxGeometry width="160" relative="1" as="geometry">
            <mxPoint x="370" y="1040" as="sourcePoint" />
            <mxPoint x="360" y="920" as="targetPoint" />
            <Array as="points">
              <mxPoint x="160" y="980" />
              <mxPoint x="360" y="980" />
            </Array>
          </mxGeometry>
        </mxCell>
        <mxCell id="KTH3ILOTCQx-SrCn-zUQ-0" value="ScenarioVariable" style="swimlane;fontStyle=0;align=center;verticalAlign=top;childLayout=stackLayout;horizontal=1;startSize=26;horizontalStack=0;resizeParent=1;resizeLast=0;collapsible=1;marginBottom=0;rounded=0;shadow=0;strokeWidth=1;" parent="8-NGuv1zwmkcrwSwAf9n-1" vertex="1">
          <mxGeometry x="10" y="245" width="160" height="125" as="geometry">
            <mxRectangle x="550" y="140" width="160" height="26" as="alternateBounds" />
          </mxGeometry>
        </mxCell>
        <mxCell id="KTH3ILOTCQx-SrCn-zUQ-1" value="+ name" style="text;align=left;verticalAlign=top;spacingLeft=4;spacingRight=4;overflow=hidden;rotatable=0;points=[[0,0.5],[1,0.5]];portConstraint=eastwest;" parent="KTH3ILOTCQx-SrCn-zUQ-0" vertex="1">
          <mxGeometry y="26" width="160" height="26" as="geometry" />
        </mxCell>
        <mxCell id="KTH3ILOTCQx-SrCn-zUQ-2" value="+ datatype" style="text;align=left;verticalAlign=top;spacingLeft=4;spacingRight=4;overflow=hidden;rotatable=0;points=[[0,0.5],[1,0.5]];portConstraint=eastwest;rounded=0;shadow=0;html=0;" parent="KTH3ILOTCQx-SrCn-zUQ-0" vertex="1">
          <mxGeometry y="52" width="160" height="26" as="geometry" />
        </mxCell>
        <mxCell id="KTH3ILOTCQx-SrCn-zUQ-3" value="+ visible" style="text;align=left;verticalAlign=top;spacingLeft=4;spacingRight=4;overflow=hidden;rotatable=0;points=[[0,0.5],[1,0.5]];portConstraint=eastwest;rounded=0;shadow=0;html=0;" parent="KTH3ILOTCQx-SrCn-zUQ-0" vertex="1">
          <mxGeometry y="78" width="160" height="26" as="geometry" />
        </mxCell>
        <mxCell id="KTH3ILOTCQx-SrCn-zUQ-5" value="" style="line;html=1;strokeWidth=1;align=left;verticalAlign=middle;spacingTop=-1;spacingLeft=3;spacingRight=3;rotatable=0;labelPosition=right;points=[];portConstraint=eastwest;" parent="KTH3ILOTCQx-SrCn-zUQ-0" vertex="1">
          <mxGeometry y="104" width="160" height="8" as="geometry" />
        </mxCell>
        <mxCell id="KTH3ILOTCQx-SrCn-zUQ-10" value="1" style="endArrow=open;html=1;endSize=12;startArrow=diamondThin;startSize=14;startFill=1;edgeStyle=orthogonalEdgeStyle;align=left;verticalAlign=bottom;exitX=0;exitY=0.5;exitDx=0;exitDy=0;rounded=0;entryX=1;entryY=0.5;entryDx=0;entryDy=0;" parent="8-NGuv1zwmkcrwSwAf9n-1" source="XWE8DCE6unmG_nTmBcOP-2" target="KTH3ILOTCQx-SrCn-zUQ-2" edge="1">
          <mxGeometry x="-0.4286" y="10" relative="1" as="geometry">
            <mxPoint x="370" y="395" as="sourcePoint" />
            <mxPoint x="370" y="465" as="targetPoint" />
            <mxPoint as="offset" />
          </mxGeometry>
        </mxCell>
        <mxCell id="KTH3ILOTCQx-SrCn-zUQ-11" value="1..*" style="edgeLabel;html=1;align=center;verticalAlign=middle;resizable=0;points=[];" parent="KTH3ILOTCQx-SrCn-zUQ-10" vertex="1" connectable="0">
          <mxGeometry x="0.2222" y="1" relative="1" as="geometry">
            <mxPoint x="9" y="15" as="offset" />
          </mxGeometry>
        </mxCell>
        <mxCell id="TSgIcggyJDQWd0qx4Q_5-8" value="InformationSnippet" style="swimlane;fontStyle=0;align=center;verticalAlign=top;childLayout=stackLayout;horizontal=1;startSize=26;horizontalStack=0;resizeParent=1;resizeLast=0;collapsible=1;marginBottom=0;rounded=0;shadow=0;strokeWidth=1;" vertex="1" parent="8-NGuv1zwmkcrwSwAf9n-1">
          <mxGeometry x="-90" y="777.01" width="160" height="70" as="geometry">
            <mxRectangle x="550" y="140" width="160" height="26" as="alternateBounds" />
          </mxGeometry>
        </mxCell>
        <mxCell id="TSgIcggyJDQWd0qx4Q_5-9" value="+ text" style="text;align=left;verticalAlign=top;spacingLeft=4;spacingRight=4;overflow=hidden;rotatable=0;points=[[0,0.5],[1,0.5]];portConstraint=eastwest;rounded=0;shadow=0;html=0;" vertex="1" parent="TSgIcggyJDQWd0qx4Q_5-8">
          <mxGeometry y="26" width="160" height="26" as="geometry" />
        </mxCell>
        <mxCell id="TSgIcggyJDQWd0qx4Q_5-10" value="" style="line;html=1;strokeWidth=1;align=left;verticalAlign=middle;spacingTop=-1;spacingLeft=3;spacingRight=3;rotatable=0;labelPosition=right;points=[];portConstraint=eastwest;" vertex="1" parent="TSgIcggyJDQWd0qx4Q_5-8">
          <mxGeometry y="52" width="160" height="8" as="geometry" />
        </mxCell>
        <mxCell id="TSgIcggyJDQWd0qx4Q_5-11" value="&lt;p style=&quot;margin: 0px ; margin-top: 4px ; text-align: center&quot;&gt;&lt;i&gt;&amp;lt;&amp;lt;Enum&amp;gt;&amp;gt;&lt;/i&gt;&lt;br&gt;DifficultyLevel&lt;br&gt;&lt;/p&gt;&lt;hr size=&quot;1&quot;&gt;&lt;p style=&quot;margin: 0px ; margin-left: 4px&quot;&gt;+LOW&lt;br&gt;&lt;/p&gt;&lt;p style=&quot;margin: 0px ; margin-left: 4px&quot;&gt;+ MEDIUM&lt;br&gt;+ HIGH&lt;/p&gt;&lt;hr size=&quot;1&quot;&gt;" style="verticalAlign=top;align=left;overflow=fill;fontSize=12;fontFamily=Helvetica;html=1;" vertex="1" parent="8-NGuv1zwmkcrwSwAf9n-1">
          <mxGeometry x="-370" y="747.01" width="190" height="130" as="geometry" />
        </mxCell>
        <mxCell id="TSgIcggyJDQWd0qx4Q_5-12" value="" style="endArrow=open;html=1;endSize=12;startArrow=diamondThin;startSize=14;startFill=0;align=left;verticalAlign=bottom;entryX=1;entryY=0.5;entryDx=0;entryDy=0;exitX=0;exitY=0.5;exitDx=0;exitDy=0;rounded=0;" edge="1" parent="8-NGuv1zwmkcrwSwAf9n-1" source="TSgIcggyJDQWd0qx4Q_5-8" target="TSgIcggyJDQWd0qx4Q_5-11">
          <mxGeometry x="-0.3333" relative="1" as="geometry">
            <mxPoint x="100" y="727.51" as="sourcePoint" />
            <mxPoint x="40" y="547.51" as="targetPoint" />
            <mxPoint as="offset" />
          </mxGeometry>
        </mxCell>
        <mxCell id="TSgIcggyJDQWd0qx4Q_5-13" value="1" style="edgeLabel;html=1;align=center;verticalAlign=middle;resizable=0;points=[];" vertex="1" connectable="0" parent="TSgIcggyJDQWd0qx4Q_5-12">
          <mxGeometry x="0.2222" y="1" relative="1" as="geometry">
            <mxPoint x="-17.000000000000004" y="-14" as="offset" />
          </mxGeometry>
        </mxCell>
        <mxCell id="TSgIcggyJDQWd0qx4Q_5-14" value="1" style="edgeLabel;html=1;align=center;verticalAlign=middle;resizable=0;points=[];" vertex="1" connectable="0" parent="TSgIcggyJDQWd0qx4Q_5-12">
          <mxGeometry x="-0.8112" y="-1" relative="1" as="geometry">
            <mxPoint x="-3" y="-10.66" as="offset" />
          </mxGeometry>
        </mxCell>
        <mxCell id="TSgIcggyJDQWd0qx4Q_5-15" value="1" style="endArrow=open;html=1;endSize=12;startArrow=diamondThin;startSize=14;startFill=1;align=left;verticalAlign=bottom;entryX=1;entryY=0.5;entryDx=0;entryDy=0;rounded=0;exitX=0;exitY=0.5;exitDx=0;exitDy=0;" edge="1" parent="8-NGuv1zwmkcrwSwAf9n-1" source="XWE8DCE6unmG_nTmBcOP-10" target="TSgIcggyJDQWd0qx4Q_5-9">
          <mxGeometry x="-0.2306" y="10" relative="1" as="geometry">
            <mxPoint x="240" y="740" as="sourcePoint" />
            <mxPoint x="-480" y="722.49" as="targetPoint" />
            <mxPoint as="offset" />
          </mxGeometry>
        </mxCell>
        <mxCell id="TSgIcggyJDQWd0qx4Q_5-16" value="0..*" style="edgeLabel;html=1;align=center;verticalAlign=middle;resizable=0;points=[];" vertex="1" connectable="0" parent="TSgIcggyJDQWd0qx4Q_5-15">
          <mxGeometry x="0.2222" y="1" relative="1" as="geometry">
            <mxPoint x="-17.000000000000004" y="15.41" as="offset" />
          </mxGeometry>
        </mxCell>
        <mxCell id="TSgIcggyJDQWd0qx4Q_5-17" style="rounded=0;orthogonalLoop=1;jettySize=auto;html=1;entryX=0.5;entryY=0;entryDx=0;entryDy=0;startArrow=none;startFill=0;dashed=1;endArrow=none;endFill=0;" edge="1" parent="8-NGuv1zwmkcrwSwAf9n-1" source="TSgIcggyJDQWd0qx4Q_5-18" target="TSgIcggyJDQWd0qx4Q_5-8">
          <mxGeometry relative="1" as="geometry" />
        </mxCell>
        <mxCell id="TSgIcggyJDQWd0qx4Q_5-18" value="Injects can have any number of &lt;b&gt;information snippets&lt;/b&gt; (additional information or hints) that are shown or hidden, depending on the individual difficulty of the learner. " style="shape=note;size=15;align=left;spacingLeft=10;html=1;whiteSpace=wrap;fillColor=#fff2cc;strokeColor=#d6b656;" vertex="1" parent="8-NGuv1zwmkcrwSwAf9n-1">
          <mxGeometry x="-90" y="580" width="250" height="120" as="geometry" />
        </mxCell>
        <mxCell id="TSgIcggyJDQWd0qx4Q_5-19" style="edgeStyle=none;rounded=0;orthogonalLoop=1;jettySize=auto;html=1;entryX=0;entryY=0;entryDx=117.5;entryDy=0;entryPerimeter=0;dashed=1;startArrow=none;startFill=0;endArrow=none;endFill=0;" edge="1" parent="8-NGuv1zwmkcrwSwAf9n-1" source="TSgIcggyJDQWd0qx4Q_5-20" target="TSgIcggyJDQWd0qx4Q_5-26">
          <mxGeometry relative="1" as="geometry" />
        </mxCell>
        <mxCell id="TSgIcggyJDQWd0qx4Q_5-20" value="RequiredKnowledge" style="swimlane;fontStyle=0;align=center;verticalAlign=top;childLayout=stackLayout;horizontal=1;startSize=26;horizontalStack=0;resizeParent=1;resizeLast=0;collapsible=1;marginBottom=0;rounded=0;shadow=0;strokeWidth=1;" vertex="1" parent="8-NGuv1zwmkcrwSwAf9n-1">
          <mxGeometry x="-170" y="907.51" width="160" height="104.99" as="geometry">
            <mxRectangle x="550" y="140" width="160" height="26" as="alternateBounds" />
          </mxGeometry>
        </mxCell>
        <mxCell id="TSgIcggyJDQWd0qx4Q_5-21" value="+ keyword" style="text;align=left;verticalAlign=top;spacingLeft=4;spacingRight=4;overflow=hidden;rotatable=0;points=[[0,0.5],[1,0.5]];portConstraint=eastwest;rounded=0;shadow=0;html=0;" vertex="1" parent="TSgIcggyJDQWd0qx4Q_5-20">
          <mxGeometry y="26" width="160" height="26" as="geometry" />
        </mxCell>
        <mxCell id="TSgIcggyJDQWd0qx4Q_5-22" value="+ description" style="text;align=left;verticalAlign=top;spacingLeft=4;spacingRight=4;overflow=hidden;rotatable=0;points=[[0,0.5],[1,0.5]];portConstraint=eastwest;rounded=0;shadow=0;html=0;" vertex="1" parent="TSgIcggyJDQWd0qx4Q_5-20">
          <mxGeometry y="52" width="160" height="26" as="geometry" />
        </mxCell>
        <mxCell id="TSgIcggyJDQWd0qx4Q_5-23" value="" style="line;html=1;strokeWidth=1;align=left;verticalAlign=middle;spacingTop=-1;spacingLeft=3;spacingRight=3;rotatable=0;labelPosition=right;points=[];portConstraint=eastwest;" vertex="1" parent="TSgIcggyJDQWd0qx4Q_5-20">
          <mxGeometry y="78" width="160" height="8" as="geometry" />
        </mxCell>
        <mxCell id="TSgIcggyJDQWd0qx4Q_5-24" value="1" style="endArrow=open;html=1;endSize=12;startArrow=diamondThin;startSize=14;startFill=1;align=left;verticalAlign=bottom;entryX=1;entryY=0.5;entryDx=0;entryDy=0;exitX=0;exitY=0.5;exitDx=0;exitDy=0;rounded=0;" edge="1" parent="8-NGuv1zwmkcrwSwAf9n-1" source="XWE8DCE6unmG_nTmBcOP-11" target="TSgIcggyJDQWd0qx4Q_5-21">
          <mxGeometry x="-0.5465" y="12" relative="1" as="geometry">
            <mxPoint x="-240" y="532.4949999999999" as="sourcePoint" />
            <mxPoint x="-310" y="687.49" as="targetPoint" />
            <mxPoint as="offset" />
          </mxGeometry>
        </mxCell>
        <mxCell id="TSgIcggyJDQWd0qx4Q_5-25" value="0..*" style="edgeLabel;html=1;align=center;verticalAlign=middle;resizable=0;points=[];" vertex="1" connectable="0" parent="TSgIcggyJDQWd0qx4Q_5-24">
          <mxGeometry x="0.2222" y="1" relative="1" as="geometry">
            <mxPoint x="15.059999999999999" y="-18.169999999999998" as="offset" />
          </mxGeometry>
        </mxCell>
        <mxCell id="TSgIcggyJDQWd0qx4Q_5-26" value="&lt;div&gt;Learners may require some &lt;b&gt;prior knowledge&lt;/b&gt; &lt;b&gt;or experience &lt;/b&gt;to solve an inject. This can be specified at inject-level. &lt;br&gt;&lt;/div&gt;&lt;div&gt;&lt;br&gt;&lt;/div&gt;&lt;div&gt;The scenario-object can then provide a &lt;b&gt;consolidated overview &lt;/b&gt;of required knowledge (which might help judging the difficulty and appropriateness of a scenario).&lt;/div&gt;" style="shape=note;size=15;align=left;spacingLeft=10;html=1;whiteSpace=wrap;fillColor=#fff2cc;strokeColor=#d6b656;" vertex="1" parent="8-NGuv1zwmkcrwSwAf9n-1">
          <mxGeometry x="-210" y="1062.5" width="250" height="160" as="geometry" />
        </mxCell>
      </root>
    </mxGraphModel>
  </diagram>
  <diagram id="1ct7ACL5qOqmG_3GejB2" name="Game_Participation">
    <mxGraphModel dx="1038" dy="587" grid="1" gridSize="10" guides="1" tooltips="1" connect="1" arrows="1" fold="1" page="1" pageScale="1" pageWidth="1169" pageHeight="827" math="0" shadow="0">
      <root>
        <mxCell id="5xXNKDgl-pBTuMTNo0pL-0" />
        <mxCell id="5xXNKDgl-pBTuMTNo0pL-1" parent="5xXNKDgl-pBTuMTNo0pL-0" />
        <mxCell id="l4VvuCivFpBUiU9CvS5Y-0" value="GameVariable" style="swimlane;fontStyle=0;align=center;verticalAlign=top;childLayout=stackLayout;horizontal=1;startSize=26;horizontalStack=0;resizeParent=1;resizeLast=0;collapsible=1;marginBottom=0;rounded=0;shadow=0;strokeWidth=1;" parent="5xXNKDgl-pBTuMTNo0pL-1" vertex="1">
          <mxGeometry x="870" y="179" width="160" height="164" as="geometry">
            <mxRectangle x="230" y="140" width="160" height="26" as="alternateBounds" />
          </mxGeometry>
        </mxCell>
        <mxCell id="l4VvuCivFpBUiU9CvS5Y-1" value="+value" style="text;align=left;verticalAlign=top;spacingLeft=4;spacingRight=4;overflow=hidden;rotatable=0;points=[[0,0.5],[1,0.5]];portConstraint=eastwest;" parent="l4VvuCivFpBUiU9CvS5Y-0" vertex="1">
          <mxGeometry y="26" width="160" height="26" as="geometry" />
        </mxCell>
        <mxCell id="l4VvuCivFpBUiU9CvS5Y-4" value="" style="line;html=1;strokeWidth=1;align=left;verticalAlign=middle;spacingTop=-1;spacingLeft=3;spacingRight=3;rotatable=0;labelPosition=right;points=[];portConstraint=eastwest;" parent="l4VvuCivFpBUiU9CvS5Y-0" vertex="1">
          <mxGeometry y="52" width="160" height="8" as="geometry" />
        </mxCell>
        <mxCell id="Nj4z6dcl7f5XWYV6CZiG-6" value="+set_value()" style="text;align=left;verticalAlign=top;spacingLeft=4;spacingRight=4;overflow=hidden;rotatable=0;points=[[0,0.5],[1,0.5]];portConstraint=eastwest;" parent="l4VvuCivFpBUiU9CvS5Y-0" vertex="1">
          <mxGeometry y="60" width="160" height="26" as="geometry" />
        </mxCell>
        <mxCell id="Nj4z6dcl7f5XWYV6CZiG-7" value="+get_name()" style="text;align=left;verticalAlign=top;spacingLeft=4;spacingRight=4;overflow=hidden;rotatable=0;points=[[0,0.5],[1,0.5]];portConstraint=eastwest;" parent="l4VvuCivFpBUiU9CvS5Y-0" vertex="1">
          <mxGeometry y="86" width="160" height="26" as="geometry" />
        </mxCell>
        <mxCell id="Nj4z6dcl7f5XWYV6CZiG-8" value="+is_visible()" style="text;align=left;verticalAlign=top;spacingLeft=4;spacingRight=4;overflow=hidden;rotatable=0;points=[[0,0.5],[1,0.5]];portConstraint=eastwest;" parent="l4VvuCivFpBUiU9CvS5Y-0" vertex="1">
          <mxGeometry y="112" width="160" height="26" as="geometry" />
        </mxCell>
        <mxCell id="Nj4z6dcl7f5XWYV6CZiG-9" value="+get_datatype()" style="text;align=left;verticalAlign=top;spacingLeft=4;spacingRight=4;overflow=hidden;rotatable=0;points=[[0,0.5],[1,0.5]];portConstraint=eastwest;" parent="l4VvuCivFpBUiU9CvS5Y-0" vertex="1">
          <mxGeometry y="138" width="160" height="26" as="geometry" />
        </mxCell>
        <mxCell id="l4VvuCivFpBUiU9CvS5Y-5" value="Learner" style="swimlane;fontStyle=2;align=center;verticalAlign=top;childLayout=stackLayout;horizontal=1;startSize=26;horizontalStack=0;resizeParent=1;resizeLast=0;collapsible=1;marginBottom=0;rounded=0;shadow=0;strokeWidth=1;" parent="5xXNKDgl-pBTuMTNo0pL-1" vertex="1">
          <mxGeometry x="305" y="280" width="160" height="70" as="geometry">
            <mxRectangle x="130" y="380" width="160" height="26" as="alternateBounds" />
          </mxGeometry>
        </mxCell>
        <mxCell id="l4VvuCivFpBUiU9CvS5Y-6" value="+id" style="text;align=left;verticalAlign=top;spacingLeft=4;spacingRight=4;overflow=hidden;rotatable=0;points=[[0,0.5],[1,0.5]];portConstraint=eastwest;" parent="l4VvuCivFpBUiU9CvS5Y-5" vertex="1">
          <mxGeometry y="26" width="160" height="26" as="geometry" />
        </mxCell>
        <mxCell id="l4VvuCivFpBUiU9CvS5Y-7" value="" style="line;html=1;strokeWidth=1;align=left;verticalAlign=middle;spacingTop=-1;spacingLeft=3;spacingRight=3;rotatable=0;labelPosition=right;points=[];portConstraint=eastwest;" parent="l4VvuCivFpBUiU9CvS5Y-5" vertex="1">
          <mxGeometry y="52" width="160" height="8" as="geometry" />
        </mxCell>
        <mxCell id="l4VvuCivFpBUiU9CvS5Y-8" value="InjectHistory" style="swimlane;fontStyle=0;align=center;verticalAlign=top;childLayout=stackLayout;horizontal=1;startSize=26;horizontalStack=0;resizeParent=1;resizeLast=0;collapsible=1;marginBottom=0;rounded=0;shadow=0;strokeWidth=1;" parent="5xXNKDgl-pBTuMTNo0pL-1" vertex="1">
          <mxGeometry x="610" y="400" width="160" height="138" as="geometry">
            <mxRectangle x="340" y="380" width="170" height="26" as="alternateBounds" />
          </mxGeometry>
        </mxCell>
        <mxCell id="l4VvuCivFpBUiU9CvS5Y-9" value="+time_started" style="text;align=left;verticalAlign=top;spacingLeft=4;spacingRight=4;overflow=hidden;rotatable=0;points=[[0,0.5],[1,0.5]];portConstraint=eastwest;rounded=0;shadow=0;html=0;" parent="l4VvuCivFpBUiU9CvS5Y-8" vertex="1">
          <mxGeometry y="26" width="160" height="26" as="geometry" />
        </mxCell>
        <mxCell id="l4VvuCivFpBUiU9CvS5Y-10" value="+time_solved" style="text;align=left;verticalAlign=top;spacingLeft=4;spacingRight=4;overflow=hidden;rotatable=0;points=[[0,0.5],[1,0.5]];portConstraint=eastwest;rounded=0;shadow=0;html=0;" parent="l4VvuCivFpBUiU9CvS5Y-8" vertex="1">
          <mxGeometry y="52" width="160" height="26" as="geometry" />
        </mxCell>
        <mxCell id="678rdqO0niOp-6NMslqd-3" value="+ choice_taken" style="text;align=left;verticalAlign=top;spacingLeft=4;spacingRight=4;overflow=hidden;rotatable=0;points=[[0,0.5],[1,0.5]];portConstraint=eastwest;rounded=0;shadow=0;html=0;" parent="l4VvuCivFpBUiU9CvS5Y-8" vertex="1">
          <mxGeometry y="78" width="160" height="26" as="geometry" />
        </mxCell>
        <mxCell id="l4VvuCivFpBUiU9CvS5Y-11" value="+variable_values" style="text;align=left;verticalAlign=top;spacingLeft=4;spacingRight=4;overflow=hidden;rotatable=0;points=[[0,0.5],[1,0.5]];portConstraint=eastwest;rounded=0;shadow=0;html=0;" parent="l4VvuCivFpBUiU9CvS5Y-8" vertex="1">
          <mxGeometry y="104" width="160" height="26" as="geometry" />
        </mxCell>
        <mxCell id="l4VvuCivFpBUiU9CvS5Y-12" value="" style="line;html=1;strokeWidth=1;align=left;verticalAlign=middle;spacingTop=-1;spacingLeft=3;spacingRight=3;rotatable=0;labelPosition=right;points=[];portConstraint=eastwest;" parent="l4VvuCivFpBUiU9CvS5Y-8" vertex="1">
          <mxGeometry y="130" width="160" height="8" as="geometry" />
        </mxCell>
        <mxCell id="l4VvuCivFpBUiU9CvS5Y-13" value="1" style="endArrow=open;html=1;endSize=12;startArrow=diamondThin;startSize=14;startFill=1;align=left;verticalAlign=bottom;entryX=0.5;entryY=0;entryDx=0;entryDy=0;rounded=0;exitX=0.5;exitY=1;exitDx=0;exitDy=0;edgeStyle=orthogonalEdgeStyle;" parent="5xXNKDgl-pBTuMTNo0pL-1" source="60VpkmyEa2V2VjSG2WAq-0" target="l4VvuCivFpBUiU9CvS5Y-8" edge="1">
          <mxGeometry x="-0.5385" relative="1" as="geometry">
            <mxPoint x="530" y="159" as="sourcePoint" />
            <mxPoint x="800" y="185" as="targetPoint" />
            <mxPoint as="offset" />
          </mxGeometry>
        </mxCell>
        <mxCell id="l4VvuCivFpBUiU9CvS5Y-14" value="0..*" style="edgeLabel;html=1;align=center;verticalAlign=middle;resizable=0;points=[];" parent="l4VvuCivFpBUiU9CvS5Y-13" vertex="1" connectable="0">
          <mxGeometry x="0.4747" y="1" relative="1" as="geometry">
            <mxPoint x="8.98" y="4" as="offset" />
          </mxGeometry>
        </mxCell>
        <mxCell id="l4VvuCivFpBUiU9CvS5Y-15" value="1" style="endArrow=open;html=1;endSize=12;startArrow=diamondThin;startSize=14;startFill=0;align=left;verticalAlign=bottom;entryX=1;entryY=0.5;entryDx=0;entryDy=0;rounded=0;exitX=0;exitY=0.5;exitDx=0;exitDy=0;edgeStyle=orthogonalEdgeStyle;" parent="5xXNKDgl-pBTuMTNo0pL-1" source="60VpkmyEa2V2VjSG2WAq-3" target="l4VvuCivFpBUiU9CvS5Y-6" edge="1">
          <mxGeometry x="-0.7143" relative="1" as="geometry">
            <mxPoint x="390" y="341" as="sourcePoint" />
            <mxPoint x="470" y="480.5" as="targetPoint" />
            <mxPoint as="offset" />
          </mxGeometry>
        </mxCell>
        <mxCell id="l4VvuCivFpBUiU9CvS5Y-16" value="1..*" style="edgeLabel;html=1;align=center;verticalAlign=middle;resizable=0;points=[];" parent="l4VvuCivFpBUiU9CvS5Y-15" vertex="1" connectable="0">
          <mxGeometry x="0.4747" y="1" relative="1" as="geometry">
            <mxPoint x="-7" y="-14" as="offset" />
          </mxGeometry>
        </mxCell>
        <mxCell id="l4VvuCivFpBUiU9CvS5Y-17" value="AuthenticatedUser" style="swimlane;fontStyle=0;align=center;verticalAlign=top;childLayout=stackLayout;horizontal=1;startSize=26;horizontalStack=0;resizeParent=1;resizeLast=0;collapsible=1;marginBottom=0;rounded=0;shadow=0;strokeWidth=1;" parent="5xXNKDgl-pBTuMTNo0pL-1" vertex="1">
          <mxGeometry x="60" y="179" width="160" height="112" as="geometry">
            <mxRectangle x="130" y="380" width="160" height="26" as="alternateBounds" />
          </mxGeometry>
        </mxCell>
        <mxCell id="l4VvuCivFpBUiU9CvS5Y-18" value="+id" style="text;align=left;verticalAlign=top;spacingLeft=4;spacingRight=4;overflow=hidden;rotatable=0;points=[[0,0.5],[1,0.5]];portConstraint=eastwest;" parent="l4VvuCivFpBUiU9CvS5Y-17" vertex="1">
          <mxGeometry y="26" width="160" height="26" as="geometry" />
        </mxCell>
        <mxCell id="l4VvuCivFpBUiU9CvS5Y-19" value="+username" style="text;align=left;verticalAlign=top;spacingLeft=4;spacingRight=4;overflow=hidden;rotatable=0;points=[[0,0.5],[1,0.5]];portConstraint=eastwest;" parent="l4VvuCivFpBUiU9CvS5Y-17" vertex="1">
          <mxGeometry y="52" width="160" height="26" as="geometry" />
        </mxCell>
        <mxCell id="l4VvuCivFpBUiU9CvS5Y-20" value="- pass_hash" style="text;align=left;verticalAlign=top;spacingLeft=4;spacingRight=4;overflow=hidden;rotatable=0;points=[[0,0.5],[1,0.5]];portConstraint=eastwest;" parent="l4VvuCivFpBUiU9CvS5Y-17" vertex="1">
          <mxGeometry y="78" width="160" height="26" as="geometry" />
        </mxCell>
        <mxCell id="l4VvuCivFpBUiU9CvS5Y-21" value="" style="line;html=1;strokeWidth=1;align=left;verticalAlign=middle;spacingTop=-1;spacingLeft=3;spacingRight=3;rotatable=0;labelPosition=right;points=[];portConstraint=eastwest;" parent="l4VvuCivFpBUiU9CvS5Y-17" vertex="1">
          <mxGeometry y="104" width="160" height="8" as="geometry" />
        </mxCell>
        <mxCell id="l4VvuCivFpBUiU9CvS5Y-22" value="UnauthenticatedUser" style="swimlane;fontStyle=0;align=center;verticalAlign=top;childLayout=stackLayout;horizontal=1;startSize=26;horizontalStack=0;resizeParent=1;resizeLast=0;collapsible=1;marginBottom=0;rounded=0;shadow=0;strokeWidth=1;" parent="5xXNKDgl-pBTuMTNo0pL-1" vertex="1">
          <mxGeometry x="305" y="390" width="160" height="96" as="geometry">
            <mxRectangle x="130" y="380" width="160" height="26" as="alternateBounds" />
          </mxGeometry>
        </mxCell>
        <mxCell id="l4VvuCivFpBUiU9CvS5Y-23" value="+id" style="text;align=left;verticalAlign=top;spacingLeft=4;spacingRight=4;overflow=hidden;rotatable=0;points=[[0,0.5],[1,0.5]];portConstraint=eastwest;" parent="l4VvuCivFpBUiU9CvS5Y-22" vertex="1">
          <mxGeometry y="26" width="160" height="26" as="geometry" />
        </mxCell>
        <mxCell id="l4VvuCivFpBUiU9CvS5Y-24" value="" style="line;html=1;strokeWidth=1;align=left;verticalAlign=middle;spacingTop=-1;spacingLeft=3;spacingRight=3;rotatable=0;labelPosition=right;points=[];portConstraint=eastwest;" parent="l4VvuCivFpBUiU9CvS5Y-22" vertex="1">
          <mxGeometry y="52" width="160" height="8" as="geometry" />
        </mxCell>
        <mxCell id="l4VvuCivFpBUiU9CvS5Y-25" value="+generate_unique_id()" style="text;align=left;verticalAlign=top;spacingLeft=4;spacingRight=4;overflow=hidden;rotatable=0;points=[[0,0.5],[1,0.5]];portConstraint=eastwest;" parent="l4VvuCivFpBUiU9CvS5Y-22" vertex="1">
          <mxGeometry y="60" width="160" height="26" as="geometry" />
        </mxCell>
        <mxCell id="l4VvuCivFpBUiU9CvS5Y-26" value="" style="endArrow=block;endSize=10;endFill=0;shadow=0;strokeWidth=1;rounded=0;elbow=vertical;entryX=0;entryY=0.5;entryDx=0;entryDy=0;exitX=1;exitY=0.5;exitDx=0;exitDy=0;" parent="5xXNKDgl-pBTuMTNo0pL-1" source="l4VvuCivFpBUiU9CvS5Y-19" target="l4VvuCivFpBUiU9CvS5Y-6" edge="1">
          <mxGeometry width="160" relative="1" as="geometry">
            <mxPoint x="370" y="574" as="sourcePoint" />
            <mxPoint x="370" y="480" as="targetPoint" />
          </mxGeometry>
        </mxCell>
        <mxCell id="l4VvuCivFpBUiU9CvS5Y-28" style="rounded=0;orthogonalLoop=1;jettySize=auto;html=1;dashed=1;endArrow=none;endFill=0;entryX=0.5;entryY=1;entryDx=0;entryDy=0;" parent="5xXNKDgl-pBTuMTNo0pL-1" source="l4VvuCivFpBUiU9CvS5Y-29" target="l4VvuCivFpBUiU9CvS5Y-22" edge="1">
          <mxGeometry relative="1" as="geometry" />
        </mxCell>
        <mxCell id="l4VvuCivFpBUiU9CvS5Y-29" value="&lt;div&gt;A &lt;b&gt;User &lt;/b&gt;does not need to be logged in (authenticated) to be able to participate in a Game.&lt;/div&gt;To allow for reasonable statistics, a unique ID is generated for the session of this unauthenticated user." style="shape=note;size=15;align=left;spacingLeft=10;html=1;whiteSpace=wrap;fillColor=#fff2cc;strokeColor=#d6b656;" parent="5xXNKDgl-pBTuMTNo0pL-1" vertex="1">
          <mxGeometry x="260" y="540" width="250" height="120" as="geometry" />
        </mxCell>
        <mxCell id="l4VvuCivFpBUiU9CvS5Y-30" value="" style="endArrow=block;endSize=10;endFill=0;shadow=0;strokeWidth=1;rounded=0;elbow=vertical;entryX=0.5;entryY=1;entryDx=0;entryDy=0;exitX=0.5;exitY=0;exitDx=0;exitDy=0;" parent="5xXNKDgl-pBTuMTNo0pL-1" source="l4VvuCivFpBUiU9CvS5Y-22" target="l4VvuCivFpBUiU9CvS5Y-5" edge="1">
          <mxGeometry width="160" relative="1" as="geometry">
            <mxPoint x="360" y="334.9999999999999" as="sourcePoint" />
            <mxPoint x="450" y="329.9999999999999" as="targetPoint" />
          </mxGeometry>
        </mxCell>
        <mxCell id="dt90nGG_dHuvMMuqTrXX-0" value="commons" style="shape=folder;fontStyle=1;spacingTop=10;tabWidth=40;tabHeight=14;tabPosition=left;html=1;verticalAlign=top;align=left;" parent="5xXNKDgl-pBTuMTNo0pL-1" vertex="1">
          <mxGeometry x="40" y="10" width="220" height="150" as="geometry" />
        </mxCell>
        <mxCell id="dt90nGG_dHuvMMuqTrXX-1" value="User" style="swimlane;fontStyle=2;align=center;verticalAlign=top;childLayout=stackLayout;horizontal=1;startSize=26;horizontalStack=0;resizeParent=1;resizeLast=0;collapsible=1;marginBottom=0;rounded=0;shadow=0;strokeWidth=1;" parent="5xXNKDgl-pBTuMTNo0pL-1" vertex="1">
          <mxGeometry x="60" y="50" width="160" height="90" as="geometry">
            <mxRectangle x="550" y="140" width="160" height="26" as="alternateBounds" />
          </mxGeometry>
        </mxCell>
        <mxCell id="dt90nGG_dHuvMMuqTrXX-2" value="+ username" style="text;align=left;verticalAlign=top;spacingLeft=4;spacingRight=4;overflow=hidden;rotatable=0;points=[[0,0.5],[1,0.5]];portConstraint=eastwest;" parent="dt90nGG_dHuvMMuqTrXX-1" vertex="1">
          <mxGeometry y="26" width="160" height="26" as="geometry" />
        </mxCell>
        <mxCell id="dt90nGG_dHuvMMuqTrXX-3" value="- pass_hash" style="text;align=left;verticalAlign=top;spacingLeft=4;spacingRight=4;overflow=hidden;rotatable=0;points=[[0,0.5],[1,0.5]];portConstraint=eastwest;rounded=0;shadow=0;html=0;" parent="dt90nGG_dHuvMMuqTrXX-1" vertex="1">
          <mxGeometry y="52" width="160" height="26" as="geometry" />
        </mxCell>
        <mxCell id="dt90nGG_dHuvMMuqTrXX-4" value="" style="line;html=1;strokeWidth=1;align=left;verticalAlign=middle;spacingTop=-1;spacingLeft=3;spacingRight=3;rotatable=0;labelPosition=right;points=[];portConstraint=eastwest;" parent="dt90nGG_dHuvMMuqTrXX-1" vertex="1">
          <mxGeometry y="78" width="160" height="8" as="geometry" />
        </mxCell>
        <mxCell id="dt90nGG_dHuvMMuqTrXX-5" value="" style="endArrow=block;endSize=10;endFill=0;shadow=0;strokeWidth=1;rounded=0;elbow=vertical;entryX=0.5;entryY=1;entryDx=0;entryDy=0;exitX=0.5;exitY=0;exitDx=0;exitDy=0;" parent="5xXNKDgl-pBTuMTNo0pL-1" source="l4VvuCivFpBUiU9CvS5Y-17" target="dt90nGG_dHuvMMuqTrXX-1" edge="1">
          <mxGeometry width="160" relative="1" as="geometry">
            <mxPoint x="300" y="390" as="sourcePoint" />
            <mxPoint x="380" y="270" as="targetPoint" />
          </mxGeometry>
        </mxCell>
        <mxCell id="678rdqO0niOp-6NMslqd-0" value="1" style="endArrow=open;html=1;endSize=12;startArrow=diamondThin;startSize=14;startFill=0;align=left;verticalAlign=bottom;entryX=1;entryY=0.5;entryDx=0;entryDy=0;rounded=0;exitX=0;exitY=0.5;exitDx=0;exitDy=0;" parent="5xXNKDgl-pBTuMTNo0pL-1" source="60VpkmyEa2V2VjSG2WAq-2" target="l4VvuCivFpBUiU9CvS5Y-18" edge="1">
          <mxGeometry x="-0.7143" relative="1" as="geometry">
            <mxPoint x="599.04" y="261.932" as="sourcePoint" />
            <mxPoint x="465" y="308.9999999999999" as="targetPoint" />
            <mxPoint as="offset" />
          </mxGeometry>
        </mxCell>
        <mxCell id="678rdqO0niOp-6NMslqd-1" value="1..*" style="edgeLabel;html=1;align=center;verticalAlign=middle;resizable=0;points=[];" parent="678rdqO0niOp-6NMslqd-0" vertex="1" connectable="0">
          <mxGeometry x="0.4747" y="1" relative="1" as="geometry">
            <mxPoint x="-7" y="-14" as="offset" />
          </mxGeometry>
        </mxCell>
        <mxCell id="678rdqO0niOp-6NMslqd-2" value="trainer" style="edgeLabel;html=1;align=center;verticalAlign=middle;resizable=0;points=[];" parent="678rdqO0niOp-6NMslqd-0" vertex="1" connectable="0">
          <mxGeometry x="-0.0599" y="-4" relative="1" as="geometry">
            <mxPoint y="-2.9399999999999995" as="offset" />
          </mxGeometry>
        </mxCell>
        <mxCell id="SUxUvQJ1EaQ7_8DRn-jW-0" value="Inject" style="swimlane;fontStyle=0;align=center;verticalAlign=top;childLayout=stackLayout;horizontal=1;startSize=26;horizontalStack=0;resizeParent=1;resizeLast=0;collapsible=1;marginBottom=0;rounded=0;shadow=0;strokeWidth=1;" parent="5xXNKDgl-pBTuMTNo0pL-1" vertex="1">
          <mxGeometry x="890" y="400" width="160" height="120" as="geometry">
            <mxRectangle x="550" y="140" width="160" height="26" as="alternateBounds" />
          </mxGeometry>
        </mxCell>
        <mxCell id="SUxUvQJ1EaQ7_8DRn-jW-1" value="+description" style="text;align=left;verticalAlign=top;spacingLeft=4;spacingRight=4;overflow=hidden;rotatable=0;points=[[0,0.5],[1,0.5]];portConstraint=eastwest;rounded=0;shadow=0;html=0;" parent="SUxUvQJ1EaQ7_8DRn-jW-0" vertex="1">
          <mxGeometry y="26" width="160" height="26" as="geometry" />
        </mxCell>
        <mxCell id="SUxUvQJ1EaQ7_8DRn-jW-2" value="+image" style="text;align=left;verticalAlign=top;spacingLeft=4;spacingRight=4;overflow=hidden;rotatable=0;points=[[0,0.5],[1,0.5]];portConstraint=eastwest;rounded=0;shadow=0;html=0;" parent="SUxUvQJ1EaQ7_8DRn-jW-0" vertex="1">
          <mxGeometry y="52" width="160" height="26" as="geometry" />
        </mxCell>
        <mxCell id="SUxUvQJ1EaQ7_8DRn-jW-3" value="" style="line;html=1;strokeWidth=1;align=left;verticalAlign=middle;spacingTop=-1;spacingLeft=3;spacingRight=3;rotatable=0;labelPosition=right;points=[];portConstraint=eastwest;" parent="SUxUvQJ1EaQ7_8DRn-jW-0" vertex="1">
          <mxGeometry y="78" width="160" height="8" as="geometry" />
        </mxCell>
        <mxCell id="SUxUvQJ1EaQ7_8DRn-jW-4" value="+display_inject()" style="text;align=left;verticalAlign=top;spacingLeft=4;spacingRight=4;overflow=hidden;rotatable=0;points=[[0,0.5],[1,0.5]];portConstraint=eastwest;rounded=0;shadow=0;html=0;" parent="SUxUvQJ1EaQ7_8DRn-jW-0" vertex="1">
          <mxGeometry y="86" width="160" height="26" as="geometry" />
        </mxCell>
        <mxCell id="SUxUvQJ1EaQ7_8DRn-jW-5" value="1" style="endArrow=open;html=1;endSize=12;startArrow=diamondThin;startSize=14;startFill=0;align=left;verticalAlign=bottom;entryX=0;entryY=0.5;entryDx=0;entryDy=0;rounded=0;exitX=1;exitY=0.5;exitDx=0;exitDy=0;" parent="5xXNKDgl-pBTuMTNo0pL-1" source="l4VvuCivFpBUiU9CvS5Y-10" target="SUxUvQJ1EaQ7_8DRn-jW-2" edge="1">
          <mxGeometry x="-0.5385" relative="1" as="geometry">
            <mxPoint x="680" y="291" as="sourcePoint" />
            <mxPoint x="680" y="400" as="targetPoint" />
            <mxPoint as="offset" />
          </mxGeometry>
        </mxCell>
        <mxCell id="SUxUvQJ1EaQ7_8DRn-jW-6" value="1" style="edgeLabel;html=1;align=center;verticalAlign=middle;resizable=0;points=[];" parent="SUxUvQJ1EaQ7_8DRn-jW-5" vertex="1" connectable="0">
          <mxGeometry x="0.4747" y="1" relative="1" as="geometry">
            <mxPoint x="8.98" y="-12" as="offset" />
          </mxGeometry>
        </mxCell>
        <mxCell id="60VpkmyEa2V2VjSG2WAq-0" value="Game" style="swimlane;fontStyle=0;align=center;verticalAlign=top;childLayout=stackLayout;horizontal=1;startSize=26;horizontalStack=0;resizeParent=1;resizeLast=0;collapsible=1;marginBottom=0;rounded=0;shadow=0;strokeWidth=1;" parent="5xXNKDgl-pBTuMTNo0pL-1" vertex="1">
          <mxGeometry x="610" y="179" width="160" height="140" as="geometry">
            <mxRectangle x="230" y="140" width="160" height="26" as="alternateBounds" />
          </mxGeometry>
        </mxCell>
        <mxCell id="60VpkmyEa2V2VjSG2WAq-1" value="+start_time" style="text;align=left;verticalAlign=top;spacingLeft=4;spacingRight=4;overflow=hidden;rotatable=0;points=[[0,0.5],[1,0.5]];portConstraint=eastwest;" parent="60VpkmyEa2V2VjSG2WAq-0" vertex="1">
          <mxGeometry y="26" width="160" height="26" as="geometry" />
        </mxCell>
        <mxCell id="60VpkmyEa2V2VjSG2WAq-2" value="+duration" style="text;align=left;verticalAlign=top;spacingLeft=4;spacingRight=4;overflow=hidden;rotatable=0;points=[[0,0.5],[1,0.5]];portConstraint=eastwest;rounded=0;shadow=0;html=0;" parent="60VpkmyEa2V2VjSG2WAq-0" vertex="1">
          <mxGeometry y="52" width="160" height="26" as="geometry" />
        </mxCell>
        <mxCell id="60VpkmyEa2V2VjSG2WAq-3" value="+state [in progress, &#xa;closed, aborted]" style="text;align=left;verticalAlign=top;spacingLeft=4;spacingRight=4;overflow=hidden;rotatable=0;points=[[0,0.5],[1,0.5]];portConstraint=eastwest;rounded=0;shadow=0;html=0;" parent="60VpkmyEa2V2VjSG2WAq-0" vertex="1">
          <mxGeometry y="78" width="160" height="42" as="geometry" />
        </mxCell>
        <mxCell id="60VpkmyEa2V2VjSG2WAq-4" value="" style="line;html=1;strokeWidth=1;align=left;verticalAlign=middle;spacingTop=-1;spacingLeft=3;spacingRight=3;rotatable=0;labelPosition=right;points=[];portConstraint=eastwest;" parent="60VpkmyEa2V2VjSG2WAq-0" vertex="1">
          <mxGeometry y="120" width="160" height="8" as="geometry" />
        </mxCell>
        <mxCell id="60VpkmyEa2V2VjSG2WAq-10" style="edgeStyle=orthogonalEdgeStyle;rounded=0;orthogonalLoop=1;jettySize=auto;html=1;exitX=0.5;exitY=1;exitDx=0;exitDy=0;entryX=0.5;entryY=0;entryDx=0;entryDy=0;startArrow=openThin;startFill=0;endArrow=diamondThin;endFill=0;endSize=14;startSize=12;" parent="5xXNKDgl-pBTuMTNo0pL-1" source="Nj4z6dcl7f5XWYV6CZiG-1" target="60VpkmyEa2V2VjSG2WAq-0" edge="1">
          <mxGeometry relative="1" as="geometry" />
        </mxCell>
        <mxCell id="60VpkmyEa2V2VjSG2WAq-5" value="ScenarioVariable" style="swimlane;fontStyle=0;align=center;verticalAlign=top;childLayout=stackLayout;horizontal=1;startSize=26;horizontalStack=0;resizeParent=1;resizeLast=0;collapsible=1;marginBottom=0;rounded=0;shadow=0;strokeWidth=1;" parent="5xXNKDgl-pBTuMTNo0pL-1" vertex="1">
          <mxGeometry x="870" y="70" width="160" height="40" as="geometry">
            <mxRectangle x="230" y="140" width="160" height="26" as="alternateBounds" />
          </mxGeometry>
        </mxCell>
        <mxCell id="60VpkmyEa2V2VjSG2WAq-9" value="" style="line;html=1;strokeWidth=1;align=left;verticalAlign=middle;spacingTop=-1;spacingLeft=3;spacingRight=3;rotatable=0;labelPosition=right;points=[];portConstraint=eastwest;" parent="60VpkmyEa2V2VjSG2WAq-5" vertex="1">
          <mxGeometry y="26" width="160" height="8" as="geometry" />
        </mxCell>
        <mxCell id="Nj4z6dcl7f5XWYV6CZiG-0" style="edgeStyle=orthogonalEdgeStyle;rounded=0;orthogonalLoop=1;jettySize=auto;html=1;exitX=0;exitY=0.5;exitDx=0;exitDy=0;startArrow=openThin;startFill=0;endArrow=diamondThin;endFill=1;endSize=14;startSize=12;entryX=1;entryY=0.5;entryDx=0;entryDy=0;" parent="5xXNKDgl-pBTuMTNo0pL-1" target="60VpkmyEa2V2VjSG2WAq-2" edge="1">
          <mxGeometry relative="1" as="geometry">
            <mxPoint x="870" y="244" as="sourcePoint" />
            <mxPoint x="770" y="250" as="targetPoint" />
          </mxGeometry>
        </mxCell>
        <mxCell id="Nj4z6dcl7f5XWYV6CZiG-1" value="Scenario" style="swimlane;fontStyle=0;align=center;verticalAlign=top;childLayout=stackLayout;horizontal=1;startSize=26;horizontalStack=0;resizeParent=1;resizeLast=0;collapsible=1;marginBottom=0;rounded=0;shadow=0;strokeWidth=1;" parent="5xXNKDgl-pBTuMTNo0pL-1" vertex="1">
          <mxGeometry x="610" y="60" width="160" height="60" as="geometry">
            <mxRectangle x="230" y="140" width="160" height="26" as="alternateBounds" />
          </mxGeometry>
        </mxCell>
        <mxCell id="Nj4z6dcl7f5XWYV6CZiG-2" value="" style="line;html=1;strokeWidth=1;align=left;verticalAlign=middle;spacingTop=-1;spacingLeft=3;spacingRight=3;rotatable=0;labelPosition=right;points=[];portConstraint=eastwest;" parent="Nj4z6dcl7f5XWYV6CZiG-1" vertex="1">
          <mxGeometry y="26" width="160" height="8" as="geometry" />
        </mxCell>
        <mxCell id="Nj4z6dcl7f5XWYV6CZiG-5" value="+create_game()" style="text;align=left;verticalAlign=top;spacingLeft=4;spacingRight=4;overflow=hidden;rotatable=0;points=[[0,0.5],[1,0.5]];portConstraint=eastwest;" parent="Nj4z6dcl7f5XWYV6CZiG-1" vertex="1">
          <mxGeometry y="34" width="160" height="26" as="geometry" />
        </mxCell>
        <mxCell id="Nj4z6dcl7f5XWYV6CZiG-3" style="edgeStyle=orthogonalEdgeStyle;rounded=0;orthogonalLoop=1;jettySize=auto;html=1;exitX=0.5;exitY=1;exitDx=0;exitDy=0;startArrow=openThin;startFill=0;endArrow=diamondThin;endFill=0;endSize=14;startSize=12;" parent="5xXNKDgl-pBTuMTNo0pL-1" source="60VpkmyEa2V2VjSG2WAq-5" target="l4VvuCivFpBUiU9CvS5Y-0" edge="1">
          <mxGeometry relative="1" as="geometry">
            <mxPoint x="700" y="110" as="sourcePoint" />
            <mxPoint x="700" y="189" as="targetPoint" />
          </mxGeometry>
        </mxCell>
        <mxCell id="Nj4z6dcl7f5XWYV6CZiG-4" style="edgeStyle=orthogonalEdgeStyle;rounded=0;orthogonalLoop=1;jettySize=auto;html=1;exitX=0;exitY=0.5;exitDx=0;exitDy=0;entryX=1;entryY=0.5;entryDx=0;entryDy=0;startArrow=openThin;startFill=0;endArrow=diamondThin;endFill=0;endSize=14;startSize=12;" parent="5xXNKDgl-pBTuMTNo0pL-1" source="60VpkmyEa2V2VjSG2WAq-5" target="Nj4z6dcl7f5XWYV6CZiG-1" edge="1">
          <mxGeometry relative="1" as="geometry">
            <mxPoint x="700" y="110" as="sourcePoint" />
            <mxPoint x="700" y="189" as="targetPoint" />
          </mxGeometry>
        </mxCell>
      </root>
    </mxGraphModel>
  </diagram>
  <diagram id="ShZ94X6M4ZAfpO0aXpa7" name="General_Administration">
    <mxGraphModel dx="1038" dy="587" grid="1" gridSize="10" guides="1" tooltips="1" connect="1" arrows="1" fold="1" page="1" pageScale="1" pageWidth="1169" pageHeight="827" math="0" shadow="0">
      <root>
        <mxCell id="lxWAVhxxBFkOEu92olEY-0" />
        <mxCell id="lxWAVhxxBFkOEu92olEY-1" parent="lxWAVhxxBFkOEu92olEY-0" />
        <mxCell id="Ov8xZ0O36Wktt8oEjd3h-0" value="AuthenticatedUser" style="swimlane;fontStyle=2;align=center;verticalAlign=top;childLayout=stackLayout;horizontal=1;startSize=26;horizontalStack=0;resizeParent=1;resizeLast=0;collapsible=1;marginBottom=0;rounded=0;shadow=0;strokeWidth=1;" parent="lxWAVhxxBFkOEu92olEY-1" vertex="1">
          <mxGeometry x="470" y="264.82" width="160" height="112" as="geometry">
            <mxRectangle x="130" y="380" width="160" height="26" as="alternateBounds" />
          </mxGeometry>
        </mxCell>
        <mxCell id="4lNmO-XeewK3R_hQ9eKv-13" value="+ username" style="text;align=left;verticalAlign=top;spacingLeft=4;spacingRight=4;overflow=hidden;rotatable=0;points=[[0,0.5],[1,0.5]];portConstraint=eastwest;" parent="Ov8xZ0O36Wktt8oEjd3h-0" vertex="1">
          <mxGeometry y="26" width="160" height="26" as="geometry" />
        </mxCell>
        <mxCell id="4lNmO-XeewK3R_hQ9eKv-14" value="+ pass_hash" style="text;align=left;verticalAlign=top;spacingLeft=4;spacingRight=4;overflow=hidden;rotatable=0;points=[[0,0.5],[1,0.5]];portConstraint=eastwest;" parent="Ov8xZ0O36Wktt8oEjd3h-0" vertex="1">
          <mxGeometry y="52" width="160" height="26" as="geometry" />
        </mxCell>
        <mxCell id="Ov8xZ0O36Wktt8oEjd3h-2" value="" style="line;html=1;strokeWidth=1;align=left;verticalAlign=middle;spacingTop=-1;spacingLeft=3;spacingRight=3;rotatable=0;labelPosition=right;points=[];portConstraint=eastwest;" parent="Ov8xZ0O36Wktt8oEjd3h-0" vertex="1">
          <mxGeometry y="78" width="160" height="8" as="geometry" />
        </mxCell>
        <mxCell id="Ov8xZ0O36Wktt8oEjd3h-15" style="rounded=0;orthogonalLoop=1;jettySize=auto;html=1;dashed=1;endArrow=none;endFill=0;entryX=0;entryY=0.5;entryDx=0;entryDy=0;" parent="lxWAVhxxBFkOEu92olEY-1" source="Ov8xZ0O36Wktt8oEjd3h-16" target="4lNmO-XeewK3R_hQ9eKv-23" edge="1">
          <mxGeometry relative="1" as="geometry">
            <mxPoint x="470" y="308.06489795918367" as="targetPoint" />
          </mxGeometry>
        </mxCell>
        <mxCell id="Ov8xZ0O36Wktt8oEjd3h-16" value="&lt;div&gt;An &lt;b&gt;organization_admin&lt;/b&gt; can change the roles of other registered users.&lt;/div&gt;&lt;div&gt;&lt;br&gt;&lt;/div&gt;&lt;div&gt;A &lt;b&gt;scenario_designer&lt;/b&gt; can create, edit and delete scenarios.&lt;/div&gt;&lt;div&gt;&lt;br&gt;&lt;/div&gt;&lt;div&gt;A &lt;b&gt;trainer &lt;/b&gt;can control a game and view statistics.&lt;br&gt;&lt;/div&gt;&lt;div&gt;&lt;br&gt;&lt;/div&gt;&lt;div&gt;A &lt;b&gt;learner&lt;/b&gt; can view statistics and replays of their previously played games.&lt;br&gt;&lt;/div&gt;" style="shape=note;size=15;align=left;spacingLeft=10;html=1;whiteSpace=wrap;fillColor=#fff2cc;strokeColor=#d6b656;" parent="lxWAVhxxBFkOEu92olEY-1" vertex="1">
          <mxGeometry x="130" y="414" width="250" height="180" as="geometry" />
        </mxCell>
        <mxCell id="4lNmO-XeewK3R_hQ9eKv-0" value="commons" style="shape=folder;fontStyle=1;spacingTop=10;tabWidth=40;tabHeight=14;tabPosition=left;html=1;verticalAlign=top;align=left;" parent="lxWAVhxxBFkOEu92olEY-1" vertex="1">
          <mxGeometry x="450" y="60" width="220" height="150" as="geometry" />
        </mxCell>
        <mxCell id="4lNmO-XeewK3R_hQ9eKv-1" value="User" style="swimlane;fontStyle=2;align=center;verticalAlign=top;childLayout=stackLayout;horizontal=1;startSize=26;horizontalStack=0;resizeParent=1;resizeLast=0;collapsible=1;marginBottom=0;rounded=0;shadow=0;strokeWidth=1;" parent="lxWAVhxxBFkOEu92olEY-1" vertex="1">
          <mxGeometry x="470" y="110" width="160" height="80" as="geometry">
            <mxRectangle x="550" y="140" width="160" height="26" as="alternateBounds" />
          </mxGeometry>
        </mxCell>
        <mxCell id="4lNmO-XeewK3R_hQ9eKv-2" value="+ id" style="text;align=left;verticalAlign=top;spacingLeft=4;spacingRight=4;overflow=hidden;rotatable=0;points=[[0,0.5],[1,0.5]];portConstraint=eastwest;" parent="4lNmO-XeewK3R_hQ9eKv-1" vertex="1">
          <mxGeometry y="26" width="160" height="26" as="geometry" />
        </mxCell>
        <mxCell id="4lNmO-XeewK3R_hQ9eKv-4" value="" style="line;html=1;strokeWidth=1;align=left;verticalAlign=middle;spacingTop=-1;spacingLeft=3;spacingRight=3;rotatable=0;labelPosition=right;points=[];portConstraint=eastwest;" parent="4lNmO-XeewK3R_hQ9eKv-1" vertex="1">
          <mxGeometry y="52" width="160" height="8" as="geometry" />
        </mxCell>
        <mxCell id="4lNmO-XeewK3R_hQ9eKv-5" value="" style="endArrow=block;endSize=10;endFill=0;shadow=0;strokeWidth=1;rounded=0;elbow=vertical;entryX=0.5;entryY=1;entryDx=0;entryDy=0;exitX=0.5;exitY=0;exitDx=0;exitDy=0;edgeStyle=orthogonalEdgeStyle;" parent="lxWAVhxxBFkOEu92olEY-1" source="Ov8xZ0O36Wktt8oEjd3h-0" target="4lNmO-XeewK3R_hQ9eKv-1" edge="1">
          <mxGeometry width="160" relative="1" as="geometry">
            <mxPoint x="800" y="266.99999999999994" as="sourcePoint" />
            <mxPoint x="780" y="179.99999999999994" as="targetPoint" />
            <Array as="points">
              <mxPoint x="550" y="260" />
              <mxPoint x="550" y="260" />
            </Array>
          </mxGeometry>
        </mxCell>
        <mxCell id="4lNmO-XeewK3R_hQ9eKv-21" value="1" style="endArrow=none;html=1;endSize=12;startArrow=none;startSize=14;startFill=0;align=left;verticalAlign=bottom;exitX=0.5;exitY=1;exitDx=0;exitDy=0;entryX=0.5;entryY=0;entryDx=0;entryDy=0;endFill=0;" parent="lxWAVhxxBFkOEu92olEY-1" source="Ov8xZ0O36Wktt8oEjd3h-0" target="4lNmO-XeewK3R_hQ9eKv-23" edge="1">
          <mxGeometry x="-0.3665" relative="1" as="geometry">
            <mxPoint x="770" y="279" as="sourcePoint" />
            <mxPoint x="630" y="320.81999999999994" as="targetPoint" />
            <mxPoint as="offset" />
          </mxGeometry>
        </mxCell>
        <mxCell id="4lNmO-XeewK3R_hQ9eKv-22" value="1..*" style="edgeLabel;html=1;align=center;verticalAlign=middle;resizable=0;points=[];" parent="4lNmO-XeewK3R_hQ9eKv-21" vertex="1" connectable="0">
          <mxGeometry x="-0.1735" y="1" relative="1" as="geometry">
            <mxPoint x="14.950000000000003" y="27.660000000000004" as="offset" />
          </mxGeometry>
        </mxCell>
        <mxCell id="4lNmO-XeewK3R_hQ9eKv-24" value="has_role" style="edgeLabel;html=1;align=center;verticalAlign=middle;resizable=0;points=[];" parent="4lNmO-XeewK3R_hQ9eKv-21" vertex="1" connectable="0">
          <mxGeometry x="0.2894" y="2" relative="1" as="geometry">
            <mxPoint y="-13.82" as="offset" />
          </mxGeometry>
        </mxCell>
        <mxCell id="4lNmO-XeewK3R_hQ9eKv-23" value="&lt;p style=&quot;margin: 0px ; margin-top: 4px ; text-align: center&quot;&gt;&lt;i&gt;&amp;lt;&amp;lt;Enum&amp;gt;&amp;gt;&lt;/i&gt;&lt;br&gt;UserRole&lt;/p&gt;&lt;hr size=&quot;1&quot;&gt;&lt;p style=&quot;margin: 0px ; margin-left: 4px&quot;&gt;+ organization_admin&lt;br&gt;+ scenario_designer&lt;/p&gt;&lt;p style=&quot;margin: 0px ; margin-left: 4px&quot;&gt;+ trainer&lt;/p&gt;&lt;p style=&quot;margin: 0px ; margin-left: 4px&quot;&gt;+ learner&lt;br&gt;&lt;/p&gt;&lt;hr size=&quot;1&quot;&gt;" style="verticalAlign=top;align=left;overflow=fill;fontSize=12;fontFamily=Helvetica;html=1;" parent="lxWAVhxxBFkOEu92olEY-1" vertex="1">
          <mxGeometry x="455" y="450" width="190" height="130" as="geometry" />
        </mxCell>
      </root>
    </mxGraphModel>
  </diagram>
  <diagram id="B__UeOiTiGCXGhwYYvdN" name="Inject v2">
    <mxGraphModel dx="1038" dy="587" grid="1" gridSize="10" guides="1" tooltips="1" connect="1" arrows="1" fold="1" page="1" pageScale="1" pageWidth="850" pageHeight="1100" math="0" shadow="0">
      <root>
        <mxCell id="Cbv4P8L6h5ZTKygxXB2l-0" />
        <mxCell id="Cbv4P8L6h5ZTKygxXB2l-1" parent="Cbv4P8L6h5ZTKygxXB2l-0" />
      </root>
    </mxGraphModel>
  </diagram>
</mxfile>
